<?xml version="1.0" encoding="UTF-8" standalone="no"?>
<!-- Created with Inkscape (http://www.inkscape.org/) -->

<svg
   version="1.1"
   id="svg1"
   width="400"
   height="400"
   viewBox="0 0 400 400.00001"
   sodipodi:docname="detr_performance.svg"
   inkscape:version="1.3 (0e150ed, 2023-07-21)"
   xmlns:inkscape="http://www.inkscape.org/namespaces/inkscape"
   xmlns:sodipodi="http://sodipodi.sourceforge.net/DTD/sodipodi-0.dtd"
   xmlns="http://www.w3.org/2000/svg"
   xmlns:svg="http://www.w3.org/2000/svg">
  <defs
     id="defs1">
    <clipPath
       clipPathUnits="userSpaceOnUse"
       id="clipPath4">
      <path
         d="M 37.207555,22.898952 H 305.27633 V 185.97895 H 37.207555 Z"
         id="path4" />
    </clipPath>
    <clipPath
       clipPathUnits="userSpaceOnUse"
       id="clipPath7">
      <path
         d="M 37.207555,22.898952 H 305.27633 V 185.97895 H 37.207555 Z"
         id="path7" />
    </clipPath>
    <clipPath
       clipPathUnits="userSpaceOnUse"
       id="clipPath10">
      <path
         d="M 37.207555,22.898952 H 305.27633 V 185.97895 H 37.207555 Z"
         id="path10" />
    </clipPath>
    <clipPath
       clipPathUnits="userSpaceOnUse"
       id="clipPath13">
      <path
         d="M 37.207555,22.898952 H 305.27633 V 185.97895 H 37.207555 Z"
         id="path13" />
    </clipPath>
    <clipPath
       clipPathUnits="userSpaceOnUse"
       id="clipPath16">
      <path
         d="M 37.207555,22.898952 H 305.27633 V 185.97895 H 37.207555 Z"
         id="path16" />
    </clipPath>
    <clipPath
       clipPathUnits="userSpaceOnUse"
       id="clipPath21">
      <path
         d="M 37.207555,22.898952 H 305.27633 V 185.97895 H 37.207555 Z"
         id="path21" />
    </clipPath>
    <clipPath
       clipPathUnits="userSpaceOnUse"
       id="clipPath26">
      <path
         d="M 37.207555,22.898952 H 305.27633 V 185.97895 H 37.207555 Z"
         id="path26" />
    </clipPath>
    <clipPath
       clipPathUnits="userSpaceOnUse"
       id="clipPath31">
      <path
         d="M 37.207555,22.898952 H 305.27633 V 185.97895 H 37.207555 Z"
         id="path31" />
    </clipPath>
    <clipPath
       clipPathUnits="userSpaceOnUse"
       id="clipPath36">
      <path
         d="M 37.207555,22.898952 H 305.27633 V 185.97895 H 37.207555 Z"
         id="path36" />
    </clipPath>
    <clipPath
       clipPathUnits="userSpaceOnUse"
       id="clipPath41">
      <path
         d="M 37.207555,22.898952 H 305.27633 V 185.97895 H 37.207555 Z"
         id="path41" />
    </clipPath>
    <clipPath
       clipPathUnits="userSpaceOnUse"
       id="clipPath46">
      <path
         d="M 37.207555,22.898952 H 305.27633 V 185.97895 H 37.207555 Z"
         id="path46" />
    </clipPath>
    <clipPath
       clipPathUnits="userSpaceOnUse"
       id="clipPath51">
      <path
         d="M 37.207555,22.898952 H 305.27633 V 185.97895 H 37.207555 Z"
         id="path51" />
    </clipPath>
    <clipPath
       clipPathUnits="userSpaceOnUse"
       id="clipPath56">
      <path
         d="M 37.207555,22.898952 H 305.27633 V 185.97895 H 37.207555 Z"
         id="path56" />
    </clipPath>
    <clipPath
       clipPathUnits="userSpaceOnUse"
       id="clipPath61">
      <path
         d="M 37.207555,22.898952 H 305.27633 V 185.97895 H 37.207555 Z"
         id="path61" />
    </clipPath>
    <clipPath
       clipPathUnits="userSpaceOnUse"
       id="clipPath66">
      <path
         d="M 37.207555,22.898952 H 305.27633 V 185.97895 H 37.207555 Z"
         id="path66" />
    </clipPath>
    <clipPath
       clipPathUnits="userSpaceOnUse"
       id="clipPath72">
      <path
         d="M 37.207555,22.898952 H 305.27633 V 185.97895 H 37.207555 Z"
         id="path72" />
    </clipPath>
    <clipPath
       clipPathUnits="userSpaceOnUse"
       id="clipPath74">
      <path
         d="M 37.207555,22.898952 H 305.27633 V 185.97895 H 37.207555 Z"
         id="path74" />
    </clipPath>
    <clipPath
       clipPathUnits="userSpaceOnUse"
       id="clipPath76">
      <path
         d="M 37.207555,22.898952 H 305.27633 V 185.97895 H 37.207555 Z"
         id="path76" />
    </clipPath>
    <clipPath
       clipPathUnits="userSpaceOnUse"
       id="clipPath78">
      <path
         d="M 37.207555,22.898952 H 305.27633 V 185.97895 H 37.207555 Z"
         id="path78" />
    </clipPath>
    <clipPath
       clipPathUnits="userSpaceOnUse"
       id="clipPath80">
      <path
         d="M 37.207555,22.898952 H 305.27633 V 185.97895 H 37.207555 Z"
         id="path80" />
    </clipPath>
    <clipPath
       clipPathUnits="userSpaceOnUse"
       id="clipPath82">
      <path
         d="M 37.207555,22.898952 H 305.27633 V 185.97895 H 37.207555 Z"
         id="path82" />
    </clipPath>
    <clipPath
       clipPathUnits="userSpaceOnUse"
       id="clipPath84">
      <path
         d="M 37.207555,22.898952 H 305.27633 V 185.97895 H 37.207555 Z"
         id="path84" />
    </clipPath>
    <clipPath
       clipPathUnits="userSpaceOnUse"
       id="clipPath86">
      <path
         d="M 37.207555,22.898952 H 305.27633 V 185.97895 H 37.207555 Z"
         id="path86" />
    </clipPath>
    <clipPath
       clipPathUnits="userSpaceOnUse"
       id="clipPath88">
      <path
         d="M 37.207555,22.898952 H 305.27633 V 185.97895 H 37.207555 Z"
         id="path88" />
    </clipPath>
    <clipPath
       clipPathUnits="userSpaceOnUse"
       id="clipPath90">
      <path
         d="M 37.207555,22.898952 H 305.27633 V 185.97895 H 37.207555 Z"
         id="path90" />
    </clipPath>
    <clipPath
       clipPathUnits="userSpaceOnUse"
       id="clipPath92">
      <path
         d="M 37.207555,22.898952 H 305.27633 V 185.97895 H 37.207555 Z"
         id="path92" />
    </clipPath>
    <clipPath
       clipPathUnits="userSpaceOnUse"
       id="clipPath94">
      <path
         d="M 37.207555,22.898952 H 305.27633 V 185.97895 H 37.207555 Z"
         id="path94" />
    </clipPath>
    <clipPath
       clipPathUnits="userSpaceOnUse"
       id="clipPath96">
      <path
         d="M 37.207555,22.898952 H 305.27633 V 185.97895 H 37.207555 Z"
         id="path96" />
    </clipPath>
    <clipPath
       clipPathUnits="userSpaceOnUse"
       id="clipPath98">
      <path
         d="M 37.207555,22.898952 H 305.27633 V 185.97895 H 37.207555 Z"
         id="path98" />
    </clipPath>
    <clipPath
       clipPathUnits="userSpaceOnUse"
       id="clipPath100">
      <path
         d="M 37.207555,22.898952 H 305.27633 V 185.97895 H 37.207555 Z"
         id="path100" />
    </clipPath>
    <clipPath
       clipPathUnits="userSpaceOnUse"
       id="clipPath102">
      <path
         d="M 37.207555,22.898952 H 305.27633 V 185.97895 H 37.207555 Z"
         id="path102" />
    </clipPath>
  </defs>
  <sodipodi:namedview
     id="namedview1"
     pagecolor="#ffffff"
     bordercolor="#000000"
     borderopacity="0.25"
     inkscape:showpageshadow="2"
     inkscape:pageopacity="0.0"
     inkscape:pagecheckerboard="0"
     inkscape:deskcolor="#d1d1d1"
     inkscape:zoom="0.90490601"
     inkscape:cx="208.30893"
     inkscape:cy="130.40028"
     inkscape:window-width="1920"
     inkscape:window-height="1027"
     inkscape:window-x="1512"
     inkscape:window-y="25"
     inkscape:window-maximized="1"
     inkscape:current-layer="g1">
    <inkscape:page
       x="0"
       y="0"
       inkscape:label="1"
       id="page1"
       width="400"
       height="400"
       margin="0"
       bleed="0" />
  </sodipodi:namedview>
  <g
     id="g1"
     inkscape:groupmode="layer"
     inkscape:label="1">
    <g
       id="g115"
       transform="matrix(0.98143313,0,0,0.97881356,-6.6305193,76.251011)">
      <path
         id="path1"
         d="M 0,0 H 312.47633 V 195.60042 H 0 Z"
         style="fill:#ffffff;fill-opacity:1;fill-rule:nonzero;stroke:none"
         transform="matrix(1.3333333,0,0,-1.3333333,0,260.80056)" />
      <path
         id="path2"
         d="M 37.207555,22.898952 H 305.27633 V 185.97895 H 37.207555 Z"
         style="fill:#ffffff;fill-opacity:1;fill-rule:nonzero;stroke:none"
         transform="matrix(1.3333333,0,0,-1.3333333,0,260.80056)" />
      <path
         id="path3"
         d="M 70.716152,22.898952 V 185.97895"
         style="fill:none;stroke:#cccccc;stroke-width:1;stroke-linecap:round;stroke-linejoin:round;stroke-miterlimit:10;stroke-dasharray:none;stroke-opacity:1"
         transform="matrix(1.3333333,0,0,-1.3333333,0,260.80056)"
         clip-path="url(#clipPath4)" />
      <path
         id="path5"
         d="m 4.3130954,-0.85690734 c -0.4804687,0.3046875 -0.703125,0.43359375 -1.40625,0.43359375 -1.078125,0 -1.734375,-1.00781251 -1.734375,-2.01562501 0,-1.03125 0.7148438,-1.9921875 1.734375,-1.9921875 0.4570313,0 0.9375,0.140625 1.2539063,0.3867188 l 0.1171875,-0.6328125 c -0.4921875,-0.1875 -0.8789063,-0.234375 -1.3945313,-0.234375 -1.3710937,0 -2.41406246,1.1367187 -2.41406246,2.484375 0,1.44140621 1.10156246,2.49609371 2.46093746,2.49609371 0.6796875,0 0.9726563,-0.140625 1.4296875,-0.38671875 z M 7.5298923,-4.8412823 H 6.8502048 L 4.9400486,-0.00143859 H 5.5142673 L 6.0533298,-1.3842511 h 2.1210938 l 0.5390625,1.38281251 h 0.7382812 z m -0.4101562,0.5273437 0.8789062,2.5195313 H 6.2291111 Z m 3.2255859,-0.5273437 v 4.83984371 h 1.980469 c 1.253906,0 2.273437,-1.05468751 2.273437,-2.37890621 0,-1.3710938 -1.019531,-2.4609375 -2.273437,-2.4609375 z m 0.691406,4.42968746 V -4.4311261 h 1.101563 c 0.960937,0 1.769531,0.7617188 1.769531,2.0507813 0,1.2890625 -0.84375,1.96874996 -1.769531,1.96874996 z M 17.610947,-4.8412823 H 16.93126 l -1.910157,4.83984371 h 0.574219 l 0.539063,-1.38281251 h 2.121093 l 0.539063,1.38281251 h 0.738281 z m -0.410156,0.5273437 0.878906,2.5195313 h -1.769531 z m 6.65625,-0.5273437 h -0.9375 v 4.83984371 H 23.49376 V -4.2905011 h 0.01172 l 2.285157,4.28906251 h 0.949218 V -4.8412823 h -0.585937 v 4.28906246 z m 8.674804,2.4960937 c 0.105469,0 0.257813,0 0.257813,-0.1640625 0,-0.1523437 -0.152344,-0.1523437 -0.257813,-0.1523437 h -4.417968 c -0.105469,0 -0.257813,0 -0.257813,0.1523437 0,0.1640625 0.152344,0.1640625 0.257813,0.1640625 z m 0,1.52343751 c 0.105469,0 0.257813,0 0.257813,-0.1640625 0,-0.16406251 -0.152344,-0.16406251 -0.257813,-0.16406251 h -4.417968 c -0.105469,0 -0.257813,0 -0.257813,0.16406251 0,0.1640625 0.152344,0.1640625 0.257813,0.1640625 z m 2.91211,-3.90234371 h -0.152344 c -0.457031,0.421875 -1.03125,0.4453125 -1.441406,0.4570312 v 0.4453125 c 0.269531,-0.011719 0.621094,-0.023437 0.960937,-0.1640625 v 3.55078126 h -0.925781 v 0.43359375 h 2.484375 v -0.43359375 h -0.925781 z m 4.863281,2.4609375 c 0,-0.3398438 0,-1.1601563 -0.328125,-1.7226563 -0.351562,-0.6328125 -0.890625,-0.7382812 -1.21875,-0.7382812 -0.316406,0 -0.867187,0.1054687 -1.207031,0.703125 -0.339844,0.5507812 -0.351563,1.3125 -0.351563,1.7578125 0,0.515625 0.02344,1.1484375 0.316407,1.67578121 0.316406,0.5625 0.832031,0.7265625 1.242187,0.7265625 0.691406,0 1.078125,-0.3984375 1.289063,-0.84375 0.246093,-0.49218751 0.257812,-1.12500001 0.257812,-1.55859371 z m -1.546875,1.94531246 c -0.292969,0 -0.632812,-0.1640625 -0.808594,-0.66796875 -0.140625,-0.42187501 -0.140625,-0.86718751 -0.140625,-1.37109371 0,-0.6445313 0,-1.9101563 0.949219,-1.9101563 0.949219,0 0.949219,1.265625 0.949219,1.9101563 0,0.4570312 0,0.984375 -0.175781,1.42968746 -0.1875,0.50390625 -0.550782,0.609375 -0.773438,0.609375 z m 2.390625,0.140625 c 0.339844,0.2578125 0.65625,0.31640625 0.984375,0.31640625 0.972656,0 1.863281,-0.97265625 1.863281,-2.47265621 0,-1.9101563 -0.84375,-2.390625 -1.511718,-2.390625 -0.621094,0 -0.902344,0.2929687 -1.113282,0.4921875 -0.445312,0.4570312 -0.457031,0.9375 -0.457031,1.2070312 0,0.9023438 0.492188,1.6757813 1.171875,1.6757813 0.785156,0 1.21875,-0.515625 1.253906,-0.5625 -0.09375,1.11328121 -0.632812,1.59374996 -1.207031,1.59374996 -0.363281,0 -0.585937,-0.12890625 -0.75,-0.2578125 z m 2.167969,-2.84765626 c 0.01172,0.035156 0.01172,0.1054688 0.01172,0.1523438 0,0.515625 -0.316407,1.0664062 -0.914063,1.0664062 -0.269531,0 -0.480469,-0.082031 -0.65625,-0.3632812 -0.1875,-0.2695313 -0.199219,-0.5390625 -0.199219,-0.8554688 0,-0.2695312 0,-0.5859375 0.210938,-0.890625 0.152344,-0.2109375 0.363281,-0.375 0.703125,-0.375 0.679687,0 0.832031,0.8203125 0.843749,1.265625 z m 0,0"
         style="fill:#262626;fill-opacity:1;fill-rule:nonzero;stroke:none"
         aria-label="CADAN=109"
         transform="matrix(1.3333333,0,0,1.3333333,64.729675,249.39254)" />
      <path
         id="path6"
         d="M 137.73335,22.898952 V 185.97895"
         style="fill:none;stroke:#cccccc;stroke-width:1;stroke-linecap:round;stroke-linejoin:round;stroke-miterlimit:10;stroke-dasharray:none;stroke-opacity:1"
         transform="matrix(1.3333333,0,0,-1.3333333,0,260.80056)"
         clip-path="url(#clipPath7)" />
      <path
         id="path8"
         d="m 3.1293673,-2.2631573 c 0.9960938,-0.2929688 1.2539063,-0.9023438 1.2539063,-1.2773438 0,-0.7265625 -0.8554688,-1.3007812 -1.8632813,-1.3007812 H 0.6801486 v 4.83984371 H 1.3715548 V -2.1928448 h 1.1484375 l 1.359375,2.19140621 h 0.703125 z M 1.3715548,-2.6498761 v -1.78125 h 1.0546875 c 0.796875,0 1.3242188,0.375 1.3242188,0.890625 0,0.4921875 -0.4921875,0.890625 -1.3242188,0.890625 z m 4.6494141,-2.1328125 h -0.703125 v 0.703125 h 0.703125 z m -0.058594,1.6875 H 5.3764377 v 3.09375001 H 5.9623752 Z M 7.7377658,-4.8412823 H 7.1518283 v 4.83984371 h 0.5976562 v -0.328125 c 0.1523438,0.12890625 0.4921875,0.3984375 0.9960938,0.3984375 0.7617187,0 1.3828127,-0.71484375 1.3828127,-1.62890621 0,-0.84375 -0.480469,-1.6054688 -1.183594,-1.6054688 -0.4335937,0 -0.8671875,0.140625 -1.2070312,0.3984375 z m 0.011719,2.6484375 c 0,-0.1171875 0,-0.1992188 0.2460938,-0.3632813 0.1054687,-0.058594 0.2929687,-0.1523437 0.5273437,-0.1523437 0.46875,0 0.9960938,0.3164062 0.9960938,1.1484375 0,0.85546871 -0.5859375,1.17187496 -1.0664063,1.17187496 -0.2578125,0 -0.5039062,-0.1171875 -0.703125,-0.43359375 z m 6.2373042,0.011719 v -0.46875 h -2.226562 v -1.6875 h 0.972656 c 0.08203,0 0.164062,0.011719 0.246094,0.011719 h 1.324218 v -0.4921875 h -3.246093 v 4.81640621 h 0.703125 V -2.1811261 Z m 1.602539,0.6914063 c 0,-0.75 0.621094,-1.1601563 1.230469,-1.1601563 v -0.515625 c -0.585937,0 -1.007812,0.2929688 -1.289062,0.65625 v -0.6328125 h -0.527344 v 3.14062501 h 0.585937 z m 4.303711,-0.515625 c 0,-0.7148438 -0.539062,-1.1953125 -1.230469,-1.1953125 -0.433593,0 -0.773437,0.09375 -1.160156,0.2929687 l 0.03516,0.515625 c 0.234375,-0.1523437 0.574219,-0.3632812 1.125,-0.3632812 0.304688,0 0.632813,0.234375 0.632813,0.75 v 0.28125 c -1.03125,0.035156 -2.050781,0.2460937 -2.050781,0.90234371 0,0.3515625 0.234375,0.890625 0.84375,0.890625 0.304687,0 0.855468,-0.05859375 1.21875,-0.33984375 v 0.26953125 h 0.585937 z m -0.597656,1.01953121 c 0,0.12890625 0,0.31640625 -0.246094,0.45703125 -0.222656,0.12890625 -0.492187,0.140625 -0.574219,0.140625 -0.386718,0 -0.679687,-0.17578125 -0.679687,-0.4453125 0,-0.44531246 1.183594,-0.48046876 1.5,-0.50390626 z m 4.224609,0.22265625 c -0.351562,0.22265625 -0.726562,0.3515625 -1.160156,0.3515625 -0.644531,0 -1.019531,-0.515625 -1.019531,-1.14843746 0,-0.5390625 0.28125,-1.1601563 1.042969,-1.1601563 0.46875,0 0.691406,0.09375 1.054687,0.3164063 l 0.08203,-0.5039063 C 23.109835,-3.106907 22.922335,-3.200657 22.383273,-3.200657 c -1.042969,0 -1.652344,0.84375 -1.652344,1.6523437 0,0.84375001 0.679687,1.61718751 1.617187,1.61718751 0.492188,0 0.914063,-0.15234375 1.207032,-0.31640625 z M 27.888156,-4.841282 h -0.9375 v 4.83984371 h 0.574219 V -4.2905011 h 0.01172 l 2.285156,4.28906251 H 30.77097 V -4.8412823 h -0.585938 v 4.28906246 z m 8.674805,2.4960937 c 0.105469,0 0.257813,0 0.257813,-0.1640625 0,-0.1523437 -0.152344,-0.1523437 -0.257813,-0.1523437 h -4.417969 c -0.105468,0 -0.257812,0 -0.257812,0.1523437 0,0.1640625 0.152344,0.1640625 0.257812,0.1640625 z m 0,1.52343751 c 0.105469,0 0.257813,0 0.257813,-0.1640625 0,-0.16406251 -0.152344,-0.16406251 -0.257813,-0.16406251 h -4.417969 c -0.105468,0 -0.257812,0 -0.257812,0.16406251 0,0.1640625 0.152344,0.1640625 0.257812,0.1640625 z M 38.385227,-4.091282 h 1.921875 v -0.4804688 h -2.484375 v 2.6015625 h 0.503906 c 0.175781,-0.375 0.503906,-0.5390625 0.808594,-0.5390625 0.292968,0 0.726562,0.1875 0.726562,1.078125 0,0.91406251 -0.585937,1.11328126 -0.9375,1.11328126 -0.457031,0 -0.902344,-0.24609375 -1.148437,-0.64453125 l -0.257813,0.421875 c 0.339844,0.421875 0.855469,0.6796875 1.40625,0.6796875 0.925781,0 1.640625,-0.703125 1.640625,-1.55859371 0,-0.8671875 -0.644531,-1.546875 -1.40625,-1.546875 -0.304687,0 -0.574219,0.09375 -0.773437,0.2695312 z m 5.953125,1.828125 c 0,-0.3398438 0,-1.1601563 -0.328125,-1.7226563 -0.351563,-0.6328125 -0.890625,-0.7382812 -1.21875,-0.7382812 -0.316407,0 -0.867188,0.1054687 -1.207032,0.703125 -0.339843,0.5507812 -0.351562,1.3125 -0.351562,1.7578125 0,0.515625 0.02344,1.1484375 0.316406,1.67578121 0.316406,0.5625 0.832031,0.7265625 1.242188,0.7265625 0.691406,0 1.078125,-0.3984375 1.289062,-0.84375 0.246094,-0.49218751 0.257813,-1.12500001 0.257813,-1.55859371 z m -1.546875,1.94531246 c -0.292969,0 -0.632813,-0.1640625 -0.808594,-0.66796875 -0.140625,-0.42187501 -0.140625,-0.86718751 -0.140625,-1.37109371 0,-0.6445313 0,-1.9101563 0.949219,-1.9101563 0.949218,0 0.949218,1.265625 0.949218,1.9101563 0,0.4570312 0,0.984375 -0.175781,1.42968746 -0.1875,0.50390625 -0.550781,0.609375 -0.773437,0.609375 z m 5.25,-1.94531246 c 0,-0.3398438 0,-1.1601563 -0.328125,-1.7226563 -0.351563,-0.6328125 -0.890625,-0.7382812 -1.21875,-0.7382812 -0.316407,0 -0.867188,0.1054687 -1.207032,0.703125 -0.339843,0.5507812 -0.351562,1.3125 -0.351562,1.7578125 0,0.515625 0.02344,1.1484375 0.316406,1.67578121 0.316406,0.5625 0.832031,0.7265625 1.242188,0.7265625 0.691406,0 1.078125,-0.3984375 1.289062,-0.84375 0.246094,-0.49218751 0.257813,-1.12500001 0.257813,-1.55859371 z m -1.546875,1.94531246 c -0.292969,0 -0.632813,-0.1640625 -0.808594,-0.66796875 -0.140625,-0.42187501 -0.140625,-0.86718751 -0.140625,-1.37109371 0,-0.6445313 0,-1.9101563 0.949219,-1.9101563 0.949218,0 0.949218,1.265625 0.949218,1.9101563 0,0.4570312 0,0.984375 -0.175781,1.42968746 -0.1875,0.50390625 -0.550781,0.609375 -0.773437,0.609375 z m 0,0"
         style="fill:#262626;fill-opacity:1;fill-rule:nonzero;stroke:none"
         aria-label="RibFracN=500"
         transform="matrix(1.3333333,0,0,1.3333333,151.39001,249.39254)" />
      <path
         id="path9"
         d="M 204.75054,22.898952 V 185.97895"
         style="fill:none;stroke:#cccccc;stroke-width:1;stroke-linecap:round;stroke-linejoin:round;stroke-miterlimit:10;stroke-dasharray:none;stroke-opacity:1"
         transform="matrix(1.3333333,0,0,-1.3333333,0,260.80056)"
         clip-path="url(#clipPath10)" />
      <path
         id="path11"
         d="m 2.7416678,-2.9311261 1.9804688,-1.9101562 h -0.703125 l -2.671875,2.5664062 V -4.8412823 H 0.70260532 v 4.83984371 H 1.3471366 V -1.5951886 l 0.9726562,-0.9257812 1.7929688,2.51953121 h 0.7148437 z m 3.6298828,-1.8515625 h -0.703125 v 0.703125 h 0.703125 z m -0.058594,1.6875 H 5.7270194 v 3.09375001 h 0.5859375 z m 1.9042969,0.4335938 h 1.03125 v -0.4335938 h -1.03125 v -0.890625 H 7.6781913 v 0.890625 H 7.0453788 v 0.4335938 h 0.609375 v 1.76953121 c 0,0.46875 0.1171875,0.9609375 0.6210937,0.9609375 0.5039063,0 0.890625,-0.1640625 1.1015625,-0.2578125 l -0.1171875,-0.4453125 c -0.234375,0.1640625 -0.4804687,0.22265625 -0.6796875,0.22265625 -0.2929687,0 -0.3632812,-0.29296875 -0.3632812,-0.60937496 z m 3.8994145,-0.328125 c -0.46875,-0.1875 -0.820313,-0.2109375 -1.066406,-0.2109375 -0.175782,0 -1.2304695,0 -1.2304695,0.9257812 0,0.328125 0.1757813,0.5039063 0.2695315,0.5976563 0.246094,0.234375 0.539063,0.2929687 0.902344,0.3632812 0.328125,0.058594 0.703125,0.1289063 0.703125,0.46875001 0,0.43359375 -0.574219,0.43359375 -0.667969,0.43359375 -0.445312,0 -0.867187,-0.15234375 -1.1484377,-0.3515625 l -0.09375,0.52734375 c 0.2343757,0.1171875 0.6562507,0.3046875 1.2421877,0.3046875 0.316406,0 0.621094,-0.046875 0.878906,-0.234375 0.257813,-0.19921875 0.339844,-0.50390625 0.339844,-0.73828125 0,-0.12890626 -0.01172,-0.39843746 -0.304687,-0.66796876 -0.257813,-0.234375 -0.515625,-0.28125 -0.84375,-0.3398437 -0.410157,-0.082031 -0.738282,-0.140625 -0.738282,-0.4453125 0,-0.3984375 0.515625,-0.3984375 0.621094,-0.3984375 0.398438,0 0.703125,0.082031 1.042969,0.2695312 z m 4.40625,-1.8515625 h -0.9375 v 4.83984371 h 0.574219 V -4.2905011 h 0.01172 l 2.285157,4.28906251 H 19.40573 V -4.8412823 h -0.585937 v 4.28906246 z m 8.677734,2.4960937 c 0.105469,0 0.257813,0 0.257813,-0.1640625 0,-0.1523437 -0.152344,-0.1523437 -0.257813,-0.1523437 h -4.417969 c -0.105468,0 -0.257812,0 -0.257812,0.1523437 0,0.1640625 0.152344,0.1640625 0.257812,0.1640625 z m 0,1.52343751 c 0.105469,0 0.257813,0 0.257813,-0.1640625 0,-0.16406251 -0.152344,-0.16406251 -0.257813,-0.16406251 h -4.417969 c -0.105468,0 -0.257812,0 -0.257812,0.16406251 0,0.1640625 0.152344,0.1640625 0.257812,0.1640625 z m 2.642578,0.28125 c -0.08203,0 -0.164062,0.0117188 -0.246093,0.0117188 h -0.796875 l 1.078125,-0.96093741 c 0.128906,-0.1054688 0.46875,-0.3632813 0.609375,-0.4804688 0.304687,-0.28125 0.714843,-0.6445313 0.714843,-1.2421875 0,-0.796875 -0.585937,-1.5117187 -1.582031,-1.5117187 -0.738281,0 -1.207031,0.3984375 -1.441406,1.1132812 l 0.328125,0.4101563 c 0.164062,-0.5859375 0.410156,-1.0429688 1.007812,-1.0429688 0.585938,0 1.03125,0.4101563 1.03125,1.0429687 0,0.5742187 -0.339843,0.9023437 -0.75,1.3007813 -0.140625,0.140625 -0.515625,0.4570313 -0.667968,0.5976563 -0.199219,0.1757812 -0.679688,0.64453116 -0.878907,0.82031241 v 0.48046875 h 2.953125 v -0.5390625 z m 5.132813,-1.72265621 c 0,-0.3398438 0,-1.1601563 -0.328125,-1.7226563 -0.351563,-0.6328125 -0.890625,-0.7382812 -1.21875,-0.7382812 -0.316406,0 -0.867188,0.1054687 -1.207031,0.703125 -0.339844,0.5507812 -0.351563,1.3125 -0.351563,1.7578125 0,0.515625 0.02344,1.1484375 0.316406,1.67578121 0.316407,0.5625 0.832032,0.7265625 1.242188,0.7265625 0.691406,0 1.078125,-0.3984375 1.289062,-0.84375 0.246094,-0.49218751 0.257813,-1.12500001 0.257813,-1.55859371 z m -1.546875,1.94531246 c -0.292969,0 -0.632813,-0.1640625 -0.808594,-0.66796875 -0.140625,-0.42187501 -0.140625,-0.86718751 -0.140625,-1.37109371 0,-0.6445313 0,-1.9101563 0.949219,-1.9101563 0.949219,0 0.949219,1.265625 0.949219,1.9101563 0,0.4570312 0,0.984375 -0.175782,1.42968746 -0.1875,0.50390625 -0.550781,0.609375 -0.773437,0.609375 z m 4.617187,-0.84374996 h 0.726563 v -0.46875 h -0.726563 v -2.9414063 h -0.691406 l -1.863281,2.9414063 v 0.46875 h 1.945312 v 1.16015621 h 0.609375 z m -1.96875,-0.46875 c 0.210938,-0.328125 1.417969,-2.1796875 1.417969,-2.6015625 v 2.6015625 z m 0,0"
         style="fill:#262626;fill-opacity:1;fill-rule:nonzero;stroke:none"
         aria-label="KitsN=204"
         transform="matrix(1.3333333,0,0,1.3333333,248.32882,249.39254)" />
      <path
         id="path12"
         d="M 271.76774,22.898952 V 185.97895"
         style="fill:none;stroke:#cccccc;stroke-width:1;stroke-linecap:round;stroke-linejoin:round;stroke-miterlimit:10;stroke-dasharray:none;stroke-opacity:1"
         transform="matrix(1.3333333,0,0,-1.3333333,0,260.80056)"
         clip-path="url(#clipPath13)" />
      <path
         id="path14"
         d="M 1.3835674,-4.8412823 H 0.68044238 v 4.83984371 H 3.7155986 v -0.4921875 c -0.65625,0 -1.3242187,0.0117188 -1.9804687,0.0117188 H 1.3835674 Z m 4.03125,0 h -0.703125 v 4.83984371 h 0.703125 z m 1.3535156,0 v 4.83984371 h 1.9804688 c 1.2539062,0 2.2734372,-1.05468751 2.2734372,-2.37890621 0,-1.3710938 -1.019531,-2.4609375 -2.2734372,-2.4609375 z m 0.6914063,4.42968746 V -4.4311261 h 1.1015625 c 0.9609375,0 1.7695312,0.7617188 1.7695312,2.0507813 0,1.2890625 -0.84375,1.96874996 -1.7695312,1.96874996 z m 8.2910157,-0.4453125 c -0.480469,0.3046875 -0.703125,0.43359375 -1.40625,0.43359375 -1.078125,0 -1.734375,-1.00781251 -1.734375,-2.01562501 0,-1.03125 0.714844,-1.9921875 1.734375,-1.9921875 0.457031,0 0.9375,0.140625 1.253906,0.3867188 l 0.117188,-0.6328125 c -0.492188,-0.1875 -0.878907,-0.234375 -1.394532,-0.234375 -1.371093,0 -2.414062,1.1367187 -2.414062,2.484375 0,1.44140621 1.101562,2.49609371 2.460937,2.49609371 0.679688,0 0.972657,-0.140625 1.429688,-0.38671875 z m 4.526367,-3.98437496 h -0.9375 v 4.83984371 h 0.574219 V -4.2905011 h 0.01172 l 2.285156,4.28906251 h 0.949219 V -4.8412823 h -0.585938 v 4.28906246 z m 8.674805,2.4960937 c 0.105469,0 0.257812,0 0.257812,-0.1640625 0,-0.1523437 -0.152343,-0.1523437 -0.257812,-0.1523437 h -4.417969 c -0.105469,0 -0.257812,0 -0.257812,0.1523437 0,0.1640625 0.152343,0.1640625 0.257812,0.1640625 z m 0,1.52343751 c 0.105469,0 0.257812,0 0.257812,-0.1640625 0,-0.16406251 -0.152343,-0.16406251 -0.257812,-0.16406251 h -4.417969 c -0.105469,0 -0.257812,0 -0.257812,0.16406251 0,0.1640625 0.152343,0.1640625 0.257812,0.1640625 z m 2.912109,-3.90234371 h -0.152344 c -0.457031,0.421875 -1.03125,0.4453125 -1.441406,0.4570312 v 0.4453125 c 0.269531,-0.011719 0.621094,-0.023437 0.960938,-0.1640625 v 3.55078126 h -0.925782 v 0.43359375 h 2.484375 v -0.43359375 h -0.925781 z m 4.863281,2.4609375 c 0,-0.3398438 0,-1.1601563 -0.328125,-1.7226563 -0.351562,-0.6328125 -0.890625,-0.7382812 -1.21875,-0.7382812 -0.316406,0 -0.867187,0.1054687 -1.207031,0.703125 -0.339844,0.5507812 -0.351562,1.3125 -0.351562,1.7578125 0,0.515625 0.02344,1.1484375 0.316406,1.67578121 0.316406,0.5625 0.832031,0.7265625 1.242187,0.7265625 0.691407,0 1.078125,-0.3984375 1.289063,-0.84375 0.246094,-0.49218751 0.257812,-1.12500001 0.257812,-1.55859371 z m -1.546875,1.94531246 c -0.292968,0 -0.632812,-0.1640625 -0.808593,-0.66796875 -0.140625,-0.42187501 -0.140625,-0.86718751 -0.140625,-1.37109371 0,-0.6445313 0,-1.9101563 0.949218,-1.9101563 0.949219,0 0.949219,1.265625 0.949219,1.9101563 0,0.4570312 0,0.984375 -0.175781,1.42968746 -0.1875,0.50390625 -0.550781,0.609375 -0.773438,0.609375 z M 37.73513,-3.5756573 c 0.28125,-0.5625 0.785156,-0.7148438 1.113281,-0.7148438 0.410156,0 0.726563,0.234375 0.726563,0.6328125 0,0.375 -0.257813,0.8203125 -0.785157,0.9140625 -0.03516,0.011719 -0.05859,0.011719 -0.527343,0.046875 v 0.4570313 h 0.550781 c 0.65625,0 0.902344,0.5273437 0.902344,0.9609375 0,0.55078121 -0.328125,0.96093746 -0.878907,0.96093746 -0.492187,0 -1.054687,-0.234375 -1.40625,-0.6796875 l -0.09375,0.45703125 c 0.410157,0.4453125 0.972657,0.6796875 1.511719,0.6796875 0.914063,0 1.570313,-0.6796875 1.570313,-1.40625001 0,-0.5742187 -0.457032,-1.03125 -1.007813,-1.1953125 0.527344,-0.2695312 0.796875,-0.7382812 0.796875,-1.1953125 0,-0.5859375 -0.597656,-1.0664062 -1.347656,-1.0664062 -0.609375,0 -1.125,0.328125 -1.417969,0.7382812 z m 4.148437,-0.515625 h 1.921875 v -0.4804688 h -2.484375 v 2.6015625 h 0.503907 c 0.175781,-0.375 0.503906,-0.5390625 0.808593,-0.5390625 0.292969,0 0.726563,0.1875 0.726563,1.078125 0,0.91406251 -0.585938,1.11328126 -0.9375,1.11328126 -0.457031,0 -0.902344,-0.24609375 -1.148438,-0.64453125 l -0.257812,0.421875 c 0.339844,0.421875 0.855469,0.6796875 1.40625,0.6796875 0.925781,0 1.640625,-0.703125 1.640625,-1.55859371 0,-0.8671875 -0.644531,-1.546875 -1.40625,-1.546875 -0.304688,0 -0.574219,0.09375 -0.773438,0.2695312 z m 0,0"
         style="fill:#262626;fill-opacity:1;fill-rule:nonzero;stroke:none"
         aria-label="LIDCN=1035"
         transform="matrix(1.3333333,0,0,1.3333333,332.71774,249.39254)" />
      <path
         id="path15"
         d="M 37.207555,22.898952 H 305.27633"
         style="fill:none;stroke:#cccccc;stroke-width:1;stroke-linecap:round;stroke-linejoin:round;stroke-miterlimit:10;stroke-dasharray:none;stroke-opacity:1"
         transform="matrix(1.3333333,0,0,-1.3333333,0,260.80056)"
         clip-path="url(#clipPath16)" />
      <g
         id="g16"
         aria-label="0.0"
         transform="matrix(1.3333333,0,0,1.3333333,23.198603,233.49725)">
        <path
           id="path17"
           d="m 3.5981179,-2.2274304 c 0,-0.7617188 -0.09375,-1.3125 -0.4101563,-1.8046875 -0.2226562,-0.3164063 -0.6445312,-0.5976563 -1.2070312,-0.5976563 -1.6171875,0 -1.6171875,1.8984375 -1.6171875,2.4023438 0,0.5039062 0,2.36718749 1.6171875,2.36718749 1.6171875,0 1.6171875,-1.86328129 1.6171875,-2.36718749 z m -1.6171875,2.16796874 c -0.3164063,0 -0.75,-0.1875 -0.890625,-0.76171875 -0.09375,-0.41015629 -0.09375,-0.98437499 -0.09375,-1.49999999 0,-0.5039063 0,-1.03125 0.1054687,-1.4179688 0.1523438,-0.5507812 0.5976563,-0.6914062 0.8789063,-0.6914062 0.375,0 0.7382812,0.2226562 0.8671875,0.6328125 0.1054687,0.375 0.1171875,0.8789062 0.1171875,1.4765625 0,0.515625 0,1.0429687 -0.09375,1.47656249 -0.140625,0.6328125 -0.609375,0.78515625 -0.890625,0.78515625 z m 0,0"
           style="fill:#262626;fill-opacity:1;fill-rule:nonzero;stroke:none" />
        <path
           id="path18"
           d="m 5.5522195,-0.39930541 c 0,-0.24609375 -0.2109375,-0.3984375 -0.3984375,-0.3984375 -0.2226563,0 -0.3984375,0.1875 -0.3984375,0.38671875 0,0.2578125 0.1992187,0.4101562477 0.3984375,0.4101562477 0.2226562,0 0.3984375,-0.1874999977 0.3984375,-0.3984374977 z m 0,0"
           style="fill:#262626;fill-opacity:1;fill-rule:nonzero;stroke:none" />
        <path
           id="path19"
           d="m 9.935032,-2.2274304 c 0,-0.7617188 -0.09375,-1.3125 -0.4101563,-1.8046875 -0.2226562,-0.3164063 -0.6445312,-0.5976563 -1.2070312,-0.5976563 -1.6171875,0 -1.6171875,1.8984375 -1.6171875,2.4023438 0,0.5039062 0,2.36718749 1.6171875,2.36718749 1.6171875,0 1.6171875,-1.86328129 1.6171875,-2.36718749 z m -1.6171875,2.16796874 c -0.3164063,0 -0.75,-0.1875 -0.890625,-0.76171875 -0.09375,-0.41015629 -0.09375,-0.98437499 -0.09375,-1.49999999 0,-0.5039063 0,-1.03125 0.1054687,-1.4179688 0.1523438,-0.5507812 0.5976563,-0.6914062 0.8789063,-0.6914062 0.375,0 0.7382812,0.2226562 0.8671875,0.6328125 0.1054687,0.375 0.1171875,0.8789062 0.1171875,1.4765625 0,0.515625 0,1.0429687 -0.09375,1.47656249 -0.140625,0.6328125 -0.609375,0.78515625 -0.890625,0.78515625 z m 0,0"
           style="fill:#262626;fill-opacity:1;fill-rule:nonzero;stroke:none" />
      </g>
      <path
         id="path20"
         d="M 37.207555,39.206952 H 305.27633"
         style="fill:none;stroke:#cccccc;stroke-width:1;stroke-linecap:round;stroke-linejoin:round;stroke-miterlimit:10;stroke-dasharray:none;stroke-opacity:1"
         transform="matrix(1.3333333,0,0,-1.3333333,0,260.80056)"
         clip-path="url(#clipPath21)" />
      <g
         id="g21"
         aria-label="0.1"
         transform="matrix(1.3333333,0,0,1.3333333,23.198603,211.75325)">
        <path
           id="path22"
           d="m 3.5981179,-2.226071 c 0,-0.7617188 -0.09375,-1.3125 -0.4101563,-1.8046875 -0.2226562,-0.3164063 -0.6445312,-0.5976563 -1.2070312,-0.5976563 -1.6171875,0 -1.6171875,1.8984375 -1.6171875,2.4023438 0,0.5039062 0,2.36718746 1.6171875,2.36718746 1.6171875,0 1.6171875,-1.86328126 1.6171875,-2.36718746 z m -1.6171875,2.16796871 c -0.3164063,0 -0.75,-0.1875 -0.890625,-0.76171875 -0.09375,-0.41015626 -0.09375,-0.98437496 -0.09375,-1.49999996 0,-0.5039063 0,-1.03125 0.1054687,-1.4179688 0.1523438,-0.5507812 0.5976563,-0.6914062 0.8789063,-0.6914062 0.375,0 0.7382812,0.2226562 0.8671875,0.6328125 0.1054687,0.375 0.1171875,0.8789062 0.1171875,1.4765625 0,0.515625 0,1.0429687 -0.09375,1.47656246 -0.140625,0.6328125 -0.609375,0.78515625 -0.890625,0.78515625 z m 0,0"
           style="fill:#262626;fill-opacity:1;fill-rule:nonzero;stroke:none" />
        <path
           id="path23"
           d="m 5.5522195,-0.39794604 c 0,-0.24609375 -0.2109375,-0.3984375 -0.3984375,-0.3984375 -0.2226563,0 -0.3984375,0.1875 -0.3984375,0.38671875 0,0.2578125 0.1992187,0.4101562527 0.3984375,0.4101562527 0.2226562,0 0.3984375,-0.1875000027 0.3984375,-0.3984375027 z m 0,0"
           style="fill:#262626;fill-opacity:1;fill-rule:nonzero;stroke:none" />
        <path
           id="path24"
           d="m 8.669407,-4.429196 c 0,-0.1875 -0.011719,-0.1992188 -0.2109375,-0.1992188 -0.4453125,0.4335938 -1.078125,0.4453125 -1.359375,0.4453125 v 0.2460938 c 0.1640625,0 0.6210937,0 1.0078125,-0.1875 v 3.55078121 c 0,0.234375 0,0.328125 -0.6914063,0.328125 H 7.1459695 V 4.914627e-4 C 7.2748757,-0.01122729 8.1303445,-0.02294604 8.388157,-0.02294604 c 0.2109375,0 1.0898437,0.01171875 1.2421875,0.0234375027 V -0.24560229 H 9.372532 c -0.703125,0 -0.703125,-0.09375 -0.703125,-0.328125 z m 0,0"
           style="fill:#262626;fill-opacity:1;fill-rule:nonzero;stroke:none" />
      </g>
      <path
         id="path25"
         d="M 37.207555,55.514952 H 305.27633"
         style="fill:none;stroke:#cccccc;stroke-width:1;stroke-linecap:round;stroke-linejoin:round;stroke-miterlimit:10;stroke-dasharray:none;stroke-opacity:1"
         transform="matrix(1.3333333,0,0,-1.3333333,0,260.80056)"
         clip-path="url(#clipPath26)" />
      <g
         id="g26"
         aria-label="0.2"
         transform="matrix(1.3333333,0,0,1.3333333,23.198603,190.00925)">
        <path
           id="path27"
           d="m 3.5981179,-2.2276413 c 0,-0.7617188 -0.09375,-1.3125 -0.4101563,-1.8046875 -0.2226562,-0.3164063 -0.6445312,-0.5976563 -1.2070312,-0.5976563 -1.6171875,0 -1.6171875,1.8984375 -1.6171875,2.4023438 0,0.5039062 0,2.36718745 1.6171875,2.36718745 1.6171875,0 1.6171875,-1.86328125 1.6171875,-2.36718745 z m -1.6171875,2.1679687 c -0.3164063,0 -0.75,-0.1875 -0.890625,-0.76171875 -0.09375,-0.41015625 -0.09375,-0.98437495 -0.09375,-1.49999995 0,-0.5039063 0,-1.03125 0.1054687,-1.4179688 0.1523438,-0.5507812 0.5976563,-0.6914062 0.8789063,-0.6914062 0.375,0 0.7382812,0.2226562 0.8671875,0.6328125 0.1054687,0.375 0.1171875,0.8789062 0.1171875,1.4765625 0,0.515625 0,1.0429687 -0.09375,1.47656245 -0.140625,0.6328125 -0.609375,0.78515625 -0.890625,0.78515625 z m 0,0"
           style="fill:#262626;fill-opacity:1;fill-rule:nonzero;stroke:none" />
        <path
           id="path28"
           d="m 5.5522195,-0.39951635 c 0,-0.24609375 -0.2109375,-0.3984375 -0.3984375,-0.3984375 -0.2226563,0 -0.3984375,0.1875 -0.3984375,0.38671875 0,0.2578125 0.1992187,0.41015625 0.3984375,0.41015625 0.2226562,0 0.3984375,-0.1875 0.3984375,-0.3984375 z m 0,0"
           style="fill:#262626;fill-opacity:1;fill-rule:nonzero;stroke:none" />
        <path
           id="path29"
           d="m 9.8530007,-1.2667038 h -0.234375 c -0.023437,0.1523437 -0.082031,0.56249995 -0.1757812,0.63281245 -0.058594,0.0351563 -0.5976563,0.0351563 -0.6914063,0.0351563 H 7.4623757 C 8.200657,-1.2432662 8.4467507,-1.442485 8.856907,-1.77061 c 0.515625,-0.4101563 0.9960937,-0.8437501 0.9960937,-1.5000001 0,-0.8437499 -0.7382812,-1.3593749 -1.6289062,-1.3593749 -0.8671875,0 -1.453125,0.609375 -1.453125,1.2421874 0,0.3632813 0.3046875,0.3984375 0.375,0.3984375 0.1640625,0 0.375,-0.1171875 0.375,-0.375 0,-0.1289062 -0.058594,-0.3632812 -0.421875,-0.3632812 0.2226562,-0.5039062 0.6914062,-0.6562499 1.0195312,-0.6562499 0.703125,0 1.0664063,0.5507812 1.0664063,1.1132812 0,0.609375 -0.4335938,1.0898438 -0.65625,1.3359375 l -1.6875,1.66406245 C 6.77097,-0.21201625 6.77097,-0.20029755 6.77097,-0.0010788 h 2.882812 z m 0,0"
           style="fill:#262626;fill-opacity:1;fill-rule:nonzero;stroke:none" />
      </g>
      <path
         id="path30"
         d="M 37.207555,71.822952 H 305.27633"
         style="fill:none;stroke:#cccccc;stroke-width:1;stroke-linecap:round;stroke-linejoin:round;stroke-miterlimit:10;stroke-dasharray:none;stroke-opacity:1"
         transform="matrix(1.3333333,0,0,-1.3333333,0,260.80056)"
         clip-path="url(#clipPath31)" />
      <g
         id="g31"
         aria-label="0.3"
         transform="matrix(1.3333333,0,0,1.3333333,23.198603,168.26525)">
        <path
           id="path32"
           d="m 3.5981179,-2.226282 c 0,-0.7617187 -0.09375,-1.3125 -0.4101563,-1.8046875 -0.2226562,-0.3164062 -0.6445312,-0.5976562 -1.2070312,-0.5976562 -1.6171875,0 -1.6171875,1.8984375 -1.6171875,2.4023437 0,0.5039063 0,2.36718753 1.6171875,2.36718753 1.6171875,0 1.6171875,-1.86328123 1.6171875,-2.36718753 z m -1.6171875,2.16796878 c -0.3164063,0 -0.75,-0.1875 -0.890625,-0.76171875 -0.09375,-0.41015623 -0.09375,-0.98437503 -0.09375,-1.50000003 0,-0.5039062 0,-1.03125 0.1054687,-1.4179687 0.1523438,-0.5507813 0.5976563,-0.6914063 0.8789063,-0.6914063 0.375,0 0.7382812,0.2226563 0.8671875,0.6328125 0.1054687,0.375 0.1171875,0.8789063 0.1171875,1.4765625 0,0.515625 0,1.0429688 -0.09375,1.47656253 -0.140625,0.6328125 -0.609375,0.78515625 -0.890625,0.78515625 z m 0,0"
           style="fill:#262626;fill-opacity:1;fill-rule:nonzero;stroke:none" />
        <path
           id="path33"
           d="m 5.5522195,-0.39815697 c 0,-0.24609375 -0.2109375,-0.3984375 -0.3984375,-0.3984375 -0.2226563,0 -0.3984375,0.1875 -0.3984375,0.38671875 0,0.2578125 0.1992187,0.4101562452 0.3984375,0.4101562452 0.2226562,0 0.3984375,-0.1874999952 0.3984375,-0.3984374952 z m 0,0"
           style="fill:#262626;fill-opacity:1;fill-rule:nonzero;stroke:none" />
        <path
           id="path34"
           d="m 8.2358132,-2.3317507 c 0.5507813,0 0.9375,0.375 0.9375,1.125 0,0.86718748 -0.5039062,1.12499998 -0.9023437,1.12499998 -0.28125,0 -0.890625,-0.08203125 -1.1835938,-0.4921875 0.328125,-0.0117188 0.3984375,-0.24609375 0.3984375,-0.38671875 0,-0.22265623 -0.1640625,-0.38671873 -0.3867187,-0.38671873 -0.1875,0 -0.3867188,0.1171875 -0.3867188,0.41015623 0,0.65625 0.7265625,1.078125 1.5703125,1.078125 0.9726563,0 1.640625,-0.64453125 1.640625,-1.34765623 0,-0.5390625 -0.4453125,-1.0898438 -1.21875,-1.2421875 0.7382813,-0.2695313 0.9960938,-0.796875 0.9960938,-1.21875 0,-0.5507813 -0.6328125,-0.9609375 -1.40625,-0.9609375 -0.7734375,0 -1.359375,0.375 -1.359375,0.9375 0,0.234375 0.1523437,0.3632812 0.3632812,0.3632812 0.2109375,0 0.3515625,-0.1640625 0.3515625,-0.3515625 0,-0.1992187 -0.140625,-0.3515625 -0.3515625,-0.3632812 0.234375,-0.3046875 0.7148438,-0.3867188 0.9726563,-0.3867188 0.3164062,0 0.7617187,0.1523438 0.7617187,0.7617188 0,0.2929687 -0.1054687,0.609375 -0.28125,0.8320312 -0.234375,0.2578125 -0.421875,0.28125 -0.7734375,0.2929688 -0.1757812,0.023437 -0.1875,0.023437 -0.2226562,0.023437 -0.011719,0 -0.070312,0.011719 -0.070312,0.09375 0,0.09375 0.058594,0.09375 0.1757812,0.09375 z m 0,0"
           style="fill:#262626;fill-opacity:1;fill-rule:nonzero;stroke:none" />
      </g>
      <path
         id="path35"
         d="M 37.207555,88.130952 H 305.27633"
         style="fill:none;stroke:#cccccc;stroke-width:1;stroke-linecap:round;stroke-linejoin:round;stroke-miterlimit:10;stroke-dasharray:none;stroke-opacity:1"
         transform="matrix(1.3333333,0,0,-1.3333333,0,260.80056)"
         clip-path="url(#clipPath36)" />
      <g
         id="g36"
         aria-label="0.4"
         transform="matrix(1.3333333,0,0,1.3333333,23.198603,146.52125)">
        <path
           id="path37"
           d="m 3.5981179,-2.2278523 c 0,-0.7617187 -0.09375,-1.3125 -0.4101563,-1.8046875 C 2.9653054,-4.348946 2.5434304,-4.630196 1.9809304,-4.630196 c -1.6171875,0 -1.6171875,1.8984375 -1.6171875,2.4023437 0,0.5039063 0,2.36718751 1.6171875,2.36718751 1.6171875,0 1.6171875,-1.86328121 1.6171875,-2.36718751 z m -1.6171875,2.16796876 c -0.3164063,0 -0.75,-0.1875 -0.890625,-0.76171875 -0.09375,-0.41015621 -0.09375,-0.98437501 -0.09375,-1.50000001 0,-0.5039062 0,-1.03125 0.1054687,-1.4179687 0.1523438,-0.5507813 0.5976563,-0.6914063 0.8789063,-0.6914063 0.375,0 0.7382812,0.2226563 0.8671875,0.6328125 0.1054687,0.375 0.1171875,0.8789063 0.1171875,1.4765625 0,0.515625 0,1.0429688 -0.09375,1.47656251 -0.140625,0.6328125 -0.609375,0.78515625 -0.890625,0.78515625 z m 0,0"
           style="fill:#262626;fill-opacity:1;fill-rule:nonzero;stroke:none" />
        <path
           id="path38"
           d="m 5.5522195,-0.39972729 c 0,-0.24609375 -0.2109375,-0.3984375 -0.3984375,-0.3984375 -0.2226563,0 -0.3984375,0.1875 -0.3984375,0.38671875 0,0.2578125 0.1992187,0.41015625 0.3984375,0.41015625 0.2226562,0 0.3984375,-0.1875 0.3984375,-0.3984375 z m 0,0"
           style="fill:#262626;fill-opacity:1;fill-rule:nonzero;stroke:none" />
        <path
           id="path39"
           d="M 10.028782,-1.1497273 V -1.395821 H 9.2553445 v -3.1054688 c 0,-0.1523437 0,-0.1992187 -0.1523438,-0.1992187 -0.09375,0 -0.1171875,0 -0.1875,0.09375 L 6.606907,-1.395821 v 0.2460937 h 2.0507812 v 0.57421876 c 0,0.234375 0,0.328125 -0.5625,0.328125 h -0.1875 v 0.24609375 c 0.3515625,-0.01171875 0.796875,-0.0234375 1.0429688,-0.0234375 0.2578125,0 0.703125,0.01171875 1.054687,0.0234375 V -0.24738354 H 9.8178445 c -0.5625,0 -0.5625,-0.09375 -0.5625,-0.328125 V -1.1497273 Z M 8.7045632,-3.9505085 V -1.395821 H 6.8647195 Z m 0,0"
           style="fill:#262626;fill-opacity:1;fill-rule:nonzero;stroke:none" />
      </g>
      <path
         id="path40"
         d="M 37.207555,104.43895 H 305.27633"
         style="fill:none;stroke:#cccccc;stroke-width:1;stroke-linecap:round;stroke-linejoin:round;stroke-miterlimit:10;stroke-dasharray:none;stroke-opacity:1"
         transform="matrix(1.3333333,0,0,-1.3333333,0,260.80056)"
         clip-path="url(#clipPath41)" />
      <g
         id="g41"
         aria-label="0.5"
         transform="matrix(1.3333333,0,0,1.3333333,23.198603,124.77725)">
        <path
           id="path42"
           d="m 3.5981179,-2.2264929 c 0,-0.7617188 -0.09375,-1.3125 -0.4101563,-1.8046875 -0.2226562,-0.3164063 -0.6445312,-0.5976563 -1.2070312,-0.5976563 -1.6171875,0 -1.6171875,1.8984375 -1.6171875,2.4023438 0,0.5039062 0,2.36718749 1.6171875,2.36718749 1.6171875,0 1.6171875,-1.86328129 1.6171875,-2.36718749 z m -1.6171875,2.16796874 c -0.3164063,0 -0.75,-0.1875 -0.890625,-0.76171875 -0.09375,-0.41015629 -0.09375,-0.98437499 -0.09375,-1.49999999 0,-0.5039063 0,-1.03125 0.1054687,-1.4179688 0.1523438,-0.5507812 0.5976563,-0.6914062 0.8789063,-0.6914062 0.375,0 0.7382812,0.2226562 0.8671875,0.6328125 0.1054687,0.375 0.1171875,0.8789062 0.1171875,1.4765625 0,0.515625 0,1.0429687 -0.09375,1.47656249 -0.140625,0.6328125 -0.609375,0.78515625 -0.890625,0.78515625 z m 0,0"
           style="fill:#262626;fill-opacity:1;fill-rule:nonzero;stroke:none" />
        <path
           id="path43"
           d="m 5.5522195,-0.39836791 c 0,-0.24609375 -0.2109375,-0.3984375 -0.3984375,-0.3984375 -0.2226563,0 -0.3984375,0.1875 -0.3984375,0.38671875 0,0.2578125 0.1992187,0.4101562477 0.3984375,0.4101562477 0.2226562,0 0.3984375,-0.1874999977 0.3984375,-0.3984374977 z m 0,0"
           style="fill:#262626;fill-opacity:1;fill-rule:nonzero;stroke:none" />
        <path
           id="path44"
           d="m 7.4155007,-3.8905554 c 0.3632813,0.09375 0.5625,0.09375 0.6796875,0.09375 0.9140625,0 1.4648438,-0.6328125 1.4648438,-0.7382813 0,-0.070312 -0.046875,-0.09375 -0.082031,-0.09375 -0.011719,0 -0.035156,0 -0.058594,0.023437 -0.1640625,0.058594 -0.5390625,0.1992188 -1.0546875,0.1992188 -0.1992188,0 -0.5625,-0.011719 -1.0195313,-0.1875 -0.070312,-0.035156 -0.082031,-0.035156 -0.082031,-0.035156 -0.09375,0 -0.09375,0.070312 -0.09375,0.1875 v 2.0625 c 0,0.1171875 0,0.1992188 0.1054687,0.1992188 0.070312,0 0.070312,-0.011719 0.140625,-0.1054688 0.3046875,-0.375 0.7265625,-0.4335937 0.9726563,-0.4335937 0.421875,0 0.609375,0.3398437 0.6445312,0.3867187 0.1171875,0.234375 0.1640625,0.5039063 0.1640625,0.9023438 0,0.2109375 0,0.62109374 -0.2109375,0.92578124 -0.1757812,0.2578125 -0.46875,0.421875 -0.8203125,0.421875 -0.4453125,0 -0.9140625,-0.2578125 -1.0898437,-0.71484375 0.2695312,0.0234375 0.3984375,-0.15234375 0.3984375,-0.33984379 0,-0.3046875 -0.2578125,-0.3515625 -0.3515625,-0.3515625 -0.011719,0 -0.3515625,0 -0.3515625,0.375 0,0.62109379 0.5742187,1.25390629 1.4179687,1.25390629 0.890625,0 1.6640625,-0.66796875 1.6640625,-1.54687499 0,-0.7851563 -0.5976562,-1.5117188 -1.453125,-1.5117188 -0.3164062,0 -0.6796875,0.082031 -0.984375,0.3398438 z m 0,0"
           style="fill:#262626;fill-opacity:1;fill-rule:nonzero;stroke:none" />
      </g>
      <path
         id="path45"
         d="M 37.207555,120.74695 H 305.27633"
         style="fill:none;stroke:#cccccc;stroke-width:1;stroke-linecap:round;stroke-linejoin:round;stroke-miterlimit:10;stroke-dasharray:none;stroke-opacity:1"
         transform="matrix(1.3333333,0,0,-1.3333333,0,260.80056)"
         clip-path="url(#clipPath46)" />
      <g
         id="g46"
         aria-label="0.6"
         transform="matrix(1.3333333,0,0,1.3333333,23.198603,103.03325)">
        <path
           id="path47"
           d="m 3.5981179,-2.2251335 c 0,-0.7617188 -0.09375,-1.3125 -0.4101563,-1.8046875 -0.2226562,-0.3164063 -0.6445312,-0.5976563 -1.2070312,-0.5976563 -1.6171875,0 -1.6171875,1.8984375 -1.6171875,2.4023438 0,0.5039062 0,2.36718746 1.6171875,2.36718746 1.6171875,0 1.6171875,-1.86328126 1.6171875,-2.36718746 z m -1.6171875,2.16796871 c -0.3164063,0 -0.75,-0.1875 -0.890625,-0.76171875 -0.09375,-0.41015626 -0.09375,-0.98437496 -0.09375,-1.49999996 0,-0.5039063 0,-1.03125 0.1054687,-1.4179688 0.1523438,-0.5507812 0.5976563,-0.6914062 0.8789063,-0.6914062 0.375,0 0.7382812,0.2226562 0.8671875,0.6328125 0.1054687,0.375 0.1171875,0.8789062 0.1171875,1.4765625 0,0.515625 0,1.0429687 -0.09375,1.47656246 -0.140625,0.6328125 -0.609375,0.78515625 -0.890625,0.78515625 z m 0,0"
           style="fill:#262626;fill-opacity:1;fill-rule:nonzero;stroke:none" />
        <path
           id="path48"
           d="m 5.5522195,-0.39700854 c 0,-0.24609375 -0.2109375,-0.3984375 -0.3984375,-0.3984375 -0.2226563,0 -0.3984375,0.1875 -0.3984375,0.38671875 0,0.2578125 0.1992187,0.41015625 0.3984375,0.41015625 0.2226562,0 0.3984375,-0.1875 0.3984375,-0.3984375 z m 0,0"
           style="fill:#262626;fill-opacity:1;fill-rule:nonzero;stroke:none" />
        <path
           id="path49"
           d="m 7.3803445,-2.2837273 c 0,-0.5625 0.046875,-1.078125 0.3164062,-1.5117187 0.234375,-0.375 0.609375,-0.6328125 1.0546875,-0.6328125 0.2109375,0 0.4921875,0.058594 0.6328125,0.2460937 -0.1757812,0.011719 -0.3164062,0.1289063 -0.3164062,0.3398438 0,0.1640625 0.1171875,0.328125 0.328125,0.328125 0.1992187,0 0.328125,-0.140625 0.328125,-0.3515625 0,-0.3984375 -0.2929688,-0.7617188 -0.984375,-0.7617188 -0.9960938,0 -2.0273438,0.9140625 -2.0273438,2.4140625 0,1.80468751 0.8554688,2.35546876 1.6171875,2.35546876 0.8554688,0 1.59375,-0.64453125 1.59375,-1.55859376 0,-0.890625 -0.703125,-1.546875 -1.5234375,-1.546875 -0.5507812,0 -0.8671875,0.375 -1.0195312,0.6796875 z m 0.9492187,2.20312501 c -0.3515625,0 -0.6210937,-0.19921875 -0.7617187,-0.515625 C 7.4623757,-0.79544604 7.403782,-1.1470085 7.403782,-1.5688835 c 0,-0.6796875 0.4101562,-1.1953125 0.9609375,-1.1953125 0.328125,0 0.5390625,0.1171875 0.7148437,0.3867187 0.1640625,0.2578125 0.1757813,0.5507813 0.1757813,0.9609375 0,0.3984375 0,0.69140626 -0.1875,0.96093751 -0.1757813,0.24609375 -0.3984375,0.375 -0.7382813,0.375 z m 0,0"
           style="fill:#262626;fill-opacity:1;fill-rule:nonzero;stroke:none" />
      </g>
      <path
         id="path50"
         d="M 37.207555,137.05495 H 305.27633"
         style="fill:none;stroke:#cccccc;stroke-width:1;stroke-linecap:round;stroke-linejoin:round;stroke-miterlimit:10;stroke-dasharray:none;stroke-opacity:1"
         transform="matrix(1.3333333,0,0,-1.3333333,0,260.80056)"
         clip-path="url(#clipPath51)" />
      <g
         id="g51"
         aria-label="0.7"
         transform="matrix(1.3333333,0,0,1.3333333,23.198603,81.289251)">
        <path
           id="path52"
           d="m 3.5981179,-2.2267038 c 0,-0.7617188 -0.09375,-1.3125 -0.4101563,-1.8046875 -0.2226562,-0.3164063 -0.6445312,-0.5976563 -1.2070312,-0.5976563 -1.6171875,0 -1.6171875,1.8984375 -1.6171875,2.4023438 0,0.5039062 0,2.36718745 1.6171875,2.36718745 1.6171875,0 1.6171875,-1.86328125 1.6171875,-2.36718745 z m -1.6171875,2.1679687 c -0.3164063,0 -0.75,-0.1875 -0.890625,-0.76171875 -0.09375,-0.41015625 -0.09375,-0.98437495 -0.09375,-1.49999995 0,-0.5039063 0,-1.03125 0.1054687,-1.4179688 0.1523438,-0.5507812 0.5976563,-0.6914062 0.8789063,-0.6914062 0.375,0 0.7382812,0.2226562 0.8671875,0.6328125 0.1054687,0.375 0.1171875,0.8789062 0.1171875,1.4765625 0,0.515625 0,1.0429687 -0.09375,1.47656245 -0.140625,0.6328125 -0.609375,0.78515625 -0.890625,0.78515625 z m 0,0"
           style="fill:#262626;fill-opacity:1;fill-rule:nonzero;stroke:none" />
        <path
           id="path53"
           d="m 5.5522195,-0.39857885 c 0,-0.24609375 -0.2109375,-0.3984375 -0.3984375,-0.3984375 -0.2226563,0 -0.3984375,0.1875 -0.3984375,0.38671875 0,0.2578125 0.1992187,0.4101562502 0.3984375,0.4101562502 0.2226562,0 0.3984375,-0.1875000002 0.3984375,-0.3984375002 z m 0,0"
           style="fill:#262626;fill-opacity:1;fill-rule:nonzero;stroke:none" />
        <path
           id="path54"
           d="m 10.063938,-4.2071726 c 0.07031,-0.09375 0.07031,-0.1054687 0.07031,-0.28125 H 8.3061257 c -0.2695312,0 -0.3515625,-0.011719 -0.5976562,-0.035156 -0.3632813,-0.023437 -0.3867188,-0.070312 -0.3984375,-0.1875 H 7.0639382 l -0.234375,1.4882812 h 0.234375 c 0.011719,-0.1054687 0.082031,-0.5625 0.1992188,-0.6328125 0.046875,-0.046875 0.609375,-0.046875 0.7148437,-0.046875 H 9.5014382 C 9.278782,-3.6095163 8.9272195,-3.1759226 8.7748757,-2.9767038 7.8608132,-1.7813913 7.778782,-0.6681101 7.778782,-0.25795385 c 0,0.0820312 0,0.3984375 0.328125,0.3984375 0.3398437,0 0.3398437,-0.31640625 0.3398437,-0.41015625 v -0.26953125 c 0,-1.35937495 0.2695313,-1.98046875 0.5742188,-2.35546875 z m 0,0"
           style="fill:#262626;fill-opacity:1;fill-rule:nonzero;stroke:none" />
      </g>
      <path
         id="path55"
         d="M 37.207555,153.36295 H 305.27633"
         style="fill:none;stroke:#cccccc;stroke-width:1;stroke-linecap:round;stroke-linejoin:round;stroke-miterlimit:10;stroke-dasharray:none;stroke-opacity:1"
         transform="matrix(1.3333333,0,0,-1.3333333,0,260.80056)"
         clip-path="url(#clipPath56)" />
      <g
         id="g56"
         aria-label="0.8"
         transform="matrix(1.3333333,0,0,1.3333333,23.198603,59.545251)">
        <path
           id="path57"
           d="m 3.5981179,-2.2253445 c 0,-0.7617187 -0.09375,-1.3125 -0.4101563,-1.8046875 -0.2226562,-0.3164062 -0.6445312,-0.5976562 -1.2070312,-0.5976562 -1.6171875,0 -1.6171875,1.8984375 -1.6171875,2.4023437 0,0.5039063 0,2.36718753 1.6171875,2.36718753 1.6171875,0 1.6171875,-1.86328123 1.6171875,-2.36718753 z m -1.6171875,2.16796878 c -0.3164063,0 -0.75,-0.1875 -0.890625,-0.76171875 -0.09375,-0.41015623 -0.09375,-0.98437503 -0.09375,-1.50000003 0,-0.5039062 0,-1.03125 0.1054687,-1.4179687 0.1523438,-0.5507813 0.5976563,-0.6914063 0.8789063,-0.6914063 0.375,0 0.7382812,0.2226563 0.8671875,0.6328125 0.1054687,0.375 0.1171875,0.8789063 0.1171875,1.4765625 0,0.515625 0,1.0429688 -0.09375,1.47656253 -0.140625,0.6328125 -0.609375,0.78515625 -0.890625,0.78515625 z m 0,0"
           style="fill:#262626;fill-opacity:1;fill-rule:nonzero;stroke:none" />
        <path
           id="path58"
           d="m 5.5522195,-0.39721947 c 0,-0.24609375 -0.2109375,-0.3984375 -0.3984375,-0.3984375 -0.2226563,0 -0.3984375,0.1875 -0.3984375,0.38671875 0,0.2578125 0.1992187,0.41015625 0.3984375,0.41015625 0.2226562,0 0.3984375,-0.1875 0.3984375,-0.3984375 z m 0,0"
           style="fill:#262626;fill-opacity:1;fill-rule:nonzero;stroke:none" />
        <path
           id="path59"
           d="m 8.810032,-2.5183132 c 0.5507812,-0.2578125 0.890625,-0.5859375 0.890625,-1.0664063 0,-0.6796875 -0.703125,-1.0429687 -1.3710938,-1.0429687 -0.7734375,0 -1.3945312,0.5039062 -1.3945312,1.1601562 0,0.328125 0.1523437,0.5625 0.2695312,0.703125 0.1289063,0.1523438 0.1757813,0.1757813 0.5859375,0.421875 -0.3867187,0.1640625 -1.078125,0.5390625 -1.078125,1.2773438 0,0.77343748 0.8085938,1.20703123 1.59375,1.20703123 0.890625,0 1.6171875,-0.5625 1.6171875,-1.32421873 0,-0.4570313 -0.2695312,-0.84375 -0.6796875,-1.078125 -0.09375,-0.058594 -0.328125,-0.1992188 -0.4335937,-0.2578125 z m -1.1367188,-0.65625 c -0.1757812,-0.1054688 -0.375,-0.2929688 -0.375,-0.5507813 0,-0.4453125 0.515625,-0.703125 1.0078125,-0.703125 0.5507813,0 1.03125,0.3398438 1.03125,0.84375 0,0.6210938 -0.7265625,0.9257813 -0.7382812,0.9257813 -0.011719,0 -0.035156,0 -0.082031,-0.035156 z m 0.3398438,0.9609375 0.9609375,0.5507812 c 0.1757812,0.1054688 0.5273437,0.3164063 0.5273437,0.72656253 0,0.52734375 -0.5742187,0.85546875 -1.171875,0.85546875 -0.6445312,0 -1.1953125,-0.41015625 -1.1953125,-0.98437498 0,-0.515625 0.3867188,-0.9140625 0.8789063,-1.1484375 z m 0,0"
           style="fill:#262626;fill-opacity:1;fill-rule:nonzero;stroke:none" />
      </g>
      <path
         id="path60"
         d="M 37.207555,169.67095 H 305.27633"
         style="fill:none;stroke:#cccccc;stroke-width:1;stroke-linecap:round;stroke-linejoin:round;stroke-miterlimit:10;stroke-dasharray:none;stroke-opacity:1"
         transform="matrix(1.3333333,0,0,-1.3333333,0,260.80056)"
         clip-path="url(#clipPath61)" />
      <g
         id="g61"
         aria-label="0.9"
         transform="matrix(1.3333333,0,0,1.3333333,23.198603,37.801251)">
        <path
           id="path62"
           d="m 3.5981179,-2.2269148 c 0,-0.7617187 -0.09375,-1.3125 -0.4101563,-1.8046875 -0.2226562,-0.3164062 -0.6445312,-0.5976562 -1.2070312,-0.5976562 -1.6171875,0 -1.6171875,1.8984375 -1.6171875,2.4023437 0,0.5039063 0,2.36718751 1.6171875,2.36718751 1.6171875,0 1.6171875,-1.86328121 1.6171875,-2.36718751 z m -1.6171875,2.16796876 c -0.3164063,0 -0.75,-0.1875 -0.890625,-0.76171875 -0.09375,-0.41015621 -0.09375,-0.98437501 -0.09375,-1.50000001 0,-0.5039062 0,-1.03125 0.1054687,-1.4179687 0.1523438,-0.5507813 0.5976563,-0.6914063 0.8789063,-0.6914063 0.375,0 0.7382812,0.2226563 0.8671875,0.6328125 0.1054687,0.375 0.1171875,0.8789063 0.1171875,1.4765625 0,0.515625 0,1.0429688 -0.09375,1.47656251 -0.140625,0.6328125 -0.609375,0.78515625 -0.890625,0.78515625 z m 0,0"
           style="fill:#262626;fill-opacity:1;fill-rule:nonzero;stroke:none" />
        <path
           id="path63"
           d="m 5.5522195,-0.39878979 c 0,-0.24609375 -0.2109375,-0.3984375 -0.3984375,-0.3984375 -0.2226563,0 -0.3984375,0.1875 -0.3984375,0.38671875 0,0.2578125 0.1992187,0.4101562527 0.3984375,0.4101562527 0.2226562,0 0.3984375,-0.1875000027 0.3984375,-0.3984375027 z m 0,0"
           style="fill:#262626;fill-opacity:1;fill-rule:nonzero;stroke:none" />
        <path
           id="path64"
           d="m 9.2553445,-2.074571 c 0,1.72265621 -0.8554688,1.99218746 -1.2773438,1.99218746 -0.1523437,0 -0.5273437,-0.01171875 -0.7148437,-0.234375 0.2929687,-0.0234375 0.3046875,-0.2578125 0.3046875,-0.328125 0,-0.17578125 -0.1171875,-0.328125 -0.328125,-0.328125 -0.1992188,0 -0.328125,0.140625 -0.328125,0.33984375 0,0.48046875 0.3984375,0.7734375 1.0664062,0.7734375 1.0078125,0 1.9453125,-0.9375 1.9453125,-2.43750001 0,-1.7226562 -0.7734375,-2.3320312 -1.5820312,-2.3320312 -0.234375,0 -0.7148438,0.035156 -1.1132813,0.421875 -0.234375,0.234375 -0.515625,0.5039062 -0.515625,1.1367187 0,0.8789063 0.703125,1.5351563 1.5234375,1.5351563 0.5507813,0 0.8554688,-0.3632813 1.0195313,-0.6796875 z m -0.984375,0.3398437 c -0.2695313,0 -0.5273438,-0.082031 -0.7265625,-0.4101562 -0.1640625,-0.2578125 -0.1640625,-0.5507813 -0.1640625,-0.9257813 0,-0.4101562 0,-0.6914062 0.2109375,-0.9726562 0.1640625,-0.234375 0.3867187,-0.3867188 0.75,-0.3867188 0.3632812,0 0.5742187,0.2226563 0.6796875,0.4101563 0.1875,0.2929687 0.2109375,0.7734375 0.2109375,1.0195312 0,0.9023438 -0.5273438,1.265625 -0.9609375,1.265625 z m 0,0"
           style="fill:#262626;fill-opacity:1;fill-rule:nonzero;stroke:none" />
      </g>
      <path
         id="path65"
         d="M 37.207555,185.97895 H 305.27633"
         style="fill:none;stroke:#cccccc;stroke-width:1;stroke-linecap:round;stroke-linejoin:round;stroke-miterlimit:10;stroke-dasharray:none;stroke-opacity:1"
         transform="matrix(1.3333333,0,0,-1.3333333,0,260.80056)"
         clip-path="url(#clipPath66)" />
      <g
         id="g66"
         aria-label="1.0"
         transform="matrix(1.3333333,0,0,1.3333333,23.198603,16.057251)">
        <path
           id="path67"
           d="m 2.3324929,-4.4286804 c 0,-0.1875 -0.011719,-0.1992188 -0.2109375,-0.1992188 -0.4453125,0.4335938 -1.078125,0.4453125 -1.359375,0.4453125 v 0.2460938 c 0.1640625,0 0.6210937,0 1.0078125,-0.1875 v 3.55078124 c 0,0.234375 0,0.328125 -0.6914063,0.328125 H 0.8090554 v 0.24609375 c 0.12890625,-0.01171875 0.984375,-0.0234375 1.2421875,-0.0234375 0.2109375,0 1.0898437,0.01171875 1.2421875,0.0234375 V -0.24508666 H 3.0356179 c -0.703125,0 -0.703125,-0.09375 -0.703125,-0.328125 z m 0,0"
           style="fill:#262626;fill-opacity:1;fill-rule:nonzero;stroke:none" />
        <path
           id="path68"
           d="m 5.5522195,-0.39743041 c 0,-0.24609375 -0.2109375,-0.3984375 -0.3984375,-0.3984375 -0.2226563,0 -0.3984375,0.1875 -0.3984375,0.38671875 0,0.2578125 0.1992187,0.41015625 0.3984375,0.41015625 0.2226562,0 0.3984375,-0.1875 0.3984375,-0.3984375 z m 0,0"
           style="fill:#262626;fill-opacity:1;fill-rule:nonzero;stroke:none" />
        <path
           id="path69"
           d="m 9.935032,-2.2255554 c 0,-0.7617188 -0.09375,-1.3125 -0.4101563,-1.8046875 -0.2226562,-0.3164063 -0.6445312,-0.5976563 -1.2070312,-0.5976563 -1.6171875,0 -1.6171875,1.8984375 -1.6171875,2.4023438 0,0.5039062 0,2.36718749 1.6171875,2.36718749 1.6171875,0 1.6171875,-1.86328129 1.6171875,-2.36718749 z m -1.6171875,2.16796874 c -0.3164063,0 -0.75,-0.1875 -0.890625,-0.76171875 -0.09375,-0.41015629 -0.09375,-0.98437499 -0.09375,-1.49999999 0,-0.5039063 0,-1.03125 0.1054687,-1.4179688 0.1523438,-0.5507812 0.5976563,-0.6914062 0.8789063,-0.6914062 0.375,0 0.7382812,0.2226562 0.8671875,0.6328125 0.1054687,0.375 0.1171875,0.8789062 0.1171875,1.4765625 0,0.515625 0,1.0429687 -0.09375,1.47656249 -0.140625,0.6328125 -0.609375,0.78515625 -0.890625,0.78515625 z m 0,0"
           style="fill:#262626;fill-opacity:1;fill-rule:nonzero;stroke:none" />
      </g>
      <path
         id="path70"
         d="m 5.2960852,-2.0614929 c 0,-0.5507813 -0.1523438,-1.1015625 -1.0195313,-1.1015625 -0.5859375,0 -0.9492187,0.3398437 -1.1132812,0.5625 -0.070312,-0.1875 -0.2460938,-0.5625 -0.9375,-0.5625 -0.3984375,0 -0.7851563,0.1640625 -1.0898438,0.5273437 v -0.5039062 h -0.5625 v 3.14062499 h 0.609375 V -1.6982117 c 0,-0.4570312 0.1992188,-1.0078125 0.7382813,-1.0078125 0.7148437,0 0.7148437,0.4921875 0.7148437,0.6914063 v 2.01562499 h 0.609375 V -1.6982117 c 0,-0.4570312 0.1875,-1.0078125 0.7265625,-1.0078125 0.7148438,0 0.7148438,0.4921875 0.7148438,0.6914063 v 2.01562499 h 0.609375 z m 3.383789,-2.7773438 H 8.0001867 L 6.0900305,0.00100709 H 6.6642492 L 7.2033117,-1.3818054 H 9.3244055 L 9.863468,0.00100709 h 0.738281 z M 8.269718,-4.3114929 9.1486242,-1.7919617 H 7.379093 Z m 5.15918,2.3203125 c 0.902343,0 1.699218,-0.6328125 1.699218,-1.4296875 0,-0.75 -0.738281,-1.4179688 -1.746093,-1.4179688 h -1.886719 v 4.83984379 h 0.703125 V -1.9911804 Z m -0.222657,-2.4375 c 0.785157,0 1.289063,0.421875 1.289063,1.0078125 0,0.5742187 -0.46875,1.0078125 -1.289063,1.0078125 H 12.18671 v -2.015625 z m 8.944336,3.82031249 c -0.09375,0 -0.117187,0 -0.164062,0.0234375 -0.351563,0.1171875 -0.703125,0.19921875 -1.066406,0.19921875 -1.125,0 -1.933594,-0.94921874 -1.933594,-2.02734374 0,-1.171875 0.914062,-2.0390625 1.886719,-2.0390625 0.199218,0 0.65625,0.058594 0.890625,0.609375 -0.199219,-0.1054688 -0.421875,-0.1640625 -0.597657,-0.1640625 -0.75,0 -1.371093,0.703125 -1.371093,1.59375 0,0.9023437 0.644531,1.58203124 1.359375,1.58203124 0.550781,0 1.382812,-0.44531254 1.382812,-1.68750004 0,-0.703125 -0.05859,-2.390625 -1.652344,-2.390625 -1.335937,0 -2.460937,1.1015625 -2.460937,2.4960938 0,1.3710937 1.113281,2.48437499 2.460937,2.48437499 0.644532,0 1.242188,-0.26953125 1.652344,-0.6796875 z M 21.166202,-1.2997742 c -0.433593,0 -0.808593,-0.4804687 -0.808593,-1.1132812 0,-0.6679688 0.386718,-1.125 0.796875,-1.125 0.433593,0 0.808593,0.4804687 0.808593,1.125 0,0.65625 -0.386718,1.1132812 -0.796875,1.1132812 z m 7.655274,-0.9609375 c 0,-0.3398437 0,-1.1601562 -0.328125,-1.7226562 -0.351563,-0.6328125 -0.890625,-0.7382813 -1.21875,-0.7382813 -0.316406,0 -0.867188,0.1054688 -1.207031,0.703125 -0.339844,0.5507813 -0.351563,1.3125 -0.351563,1.7578125 0,0.515625 0.02344,1.1484375 0.316406,1.67578129 0.316407,0.5625 0.832032,0.7265625 1.242188,0.7265625 0.691406,0 1.078125,-0.3984375 1.289062,-0.84375 0.246094,-0.49218749 0.257813,-1.12499999 0.257813,-1.55859379 z m -1.546875,1.94531254 c -0.292969,0 -0.632813,-0.1640625 -0.808594,-0.66796875 -0.140625,-0.42187499 -0.140625,-0.86718749 -0.140625,-1.37109379 0,-0.6445312 0,-1.9101562 0.949219,-1.9101562 0.949219,0 0.949219,1.265625 0.949219,1.9101562 0,0.4570313 0,0.984375 -0.175782,1.42968754 -0.1875,0.50390625 -0.550781,0.609375 -0.773437,0.609375 z m 3.1875,-0.31640625 h -0.621094 v 0.6328125 h 0.621094 z m 2.958984,-4.08984379 h -0.152344 c -0.457031,0.421875 -1.03125,0.4453125 -1.441406,0.4570313 v 0.4453125 c 0.269531,-0.011719 0.621094,-0.023437 0.960938,-0.1640625 v 3.55078124 h -0.925782 v 0.43359375 h 2.484375 v -0.43359375 h -0.925781 z m 5.317383,-0.1171875 h -0.703125 v 4.83984379 h 0.703125 z m 4.166016,3.3164063 c 0,-0.9257813 -0.738282,-1.6757813 -1.640625,-1.6757813 -0.914063,0 -1.640625,0.7617188 -1.640625,1.6757813 0,0.87890624 0.738281,1.59374999 1.640625,1.59374999 0.902343,0 1.640625,-0.71484375 1.640625,-1.59374999 z m -1.640625,1.11328124 c -0.550782,0 -1.03125,-0.41015625 -1.03125,-1.19531254 0,-0.7851562 0.515625,-1.1367187 1.03125,-1.1367187 0.515625,0 1.03125,0.3632812 1.03125,1.1367187 0,0.79687504 -0.503907,1.19531254 -1.03125,1.19531254 z m 6.246093,-4.42968754 h -0.597656 v 3.2109375 c 0,0.93750004 -0.632812,1.35937504 -1.230469,1.35937504 -0.597656,0 -1.183593,-0.43359375 -1.183593,-1.34765624 v -3.2226563 h -0.703125 v 3.2109375 c 0,1.01953129 0.878906,1.76953129 1.875,1.76953129 0.996093,0 1.839843,-0.75 1.839843,-1.76953129 z m 0,0"
         style="fill:#262626;fill-opacity:1;fill-rule:nonzero;stroke:none"
         aria-label="mAP&#10;@&#10;0.1&#10;IoU"
         transform="matrix(0,-1.3333333,1.3333333,0,16.057251,153.69817)" />
      <path
         id="path71"
         d="M 43.909274,22.898952 H 57.312713 V 165.34995 H 43.909274 Z"
         style="fill:#5875a4;fill-opacity:1;fill-rule:nonzero;stroke:#ffffff;stroke-width:1;stroke-linecap:butt;stroke-linejoin:miter;stroke-miterlimit:10;stroke-dasharray:none;stroke-opacity:1"
         transform="matrix(1.3333333,0,0,-1.3333333,0,260.80056)"
         clip-path="url(#clipPath72)" />
      <path
         id="path73"
         d="m 110.92647,22.898952 h 13.40344 V 147.02319 h -13.40344 z"
         style="fill:#5875a4;fill-opacity:1;fill-rule:nonzero;stroke:#ffffff;stroke-width:1;stroke-linecap:butt;stroke-linejoin:miter;stroke-miterlimit:10;stroke-dasharray:none;stroke-opacity:1"
         transform="matrix(1.3333333,0,0,-1.3333333,0,260.80056)"
         clip-path="url(#clipPath74)" />
      <path
         id="path75"
         d="M 177.94366,22.898952 H 191.3471 V 165.59989 h -13.40344 z"
         style="fill:#5875a4;fill-opacity:1;fill-rule:nonzero;stroke:#ffffff;stroke-width:1;stroke-linecap:butt;stroke-linejoin:miter;stroke-miterlimit:10;stroke-dasharray:none;stroke-opacity:1"
         transform="matrix(1.3333333,0,0,-1.3333333,0,260.80056)"
         clip-path="url(#clipPath76)" />
      <path
         id="path77"
         d="M 244.96086,22.898952 H 258.3643 V 113.75773 H 244.96086 Z"
         style="fill:#5875a4;fill-opacity:1;fill-rule:nonzero;stroke:#ffffff;stroke-width:1;stroke-linecap:butt;stroke-linejoin:miter;stroke-miterlimit:10;stroke-dasharray:none;stroke-opacity:1"
         transform="matrix(1.3333333,0,0,-1.3333333,0,260.80056)"
         clip-path="url(#clipPath78)" />
      <path
         id="path79"
         d="M 57.312713,22.898952 H 70.716152 V 167.56973 H 57.312713 Z"
         style="fill:#cc8963;fill-opacity:1;fill-rule:nonzero;stroke:#ffffff;stroke-width:1;stroke-linecap:butt;stroke-linejoin:miter;stroke-miterlimit:10;stroke-dasharray:none;stroke-opacity:1"
         transform="matrix(1.3333333,0,0,-1.3333333,0,260.80056)"
         clip-path="url(#clipPath80)" />
      <path
         id="path81"
         d="m 124.32991,22.898952 h 13.40344 V 149.40443 h -13.40344 z"
         style="fill:#cc8963;fill-opacity:1;fill-rule:nonzero;stroke:#ffffff;stroke-width:1;stroke-linecap:butt;stroke-linejoin:miter;stroke-miterlimit:10;stroke-dasharray:none;stroke-opacity:1"
         transform="matrix(1.3333333,0,0,-1.3333333,0,260.80056)"
         clip-path="url(#clipPath82)" />
      <path
         id="path83"
         d="m 191.3471,22.898952 h 13.40344 V 169.58815 H 191.3471 Z"
         style="fill:#cc8963;fill-opacity:1;fill-rule:nonzero;stroke:#ffffff;stroke-width:1;stroke-linecap:butt;stroke-linejoin:miter;stroke-miterlimit:10;stroke-dasharray:none;stroke-opacity:1"
         transform="matrix(1.3333333,0,0,-1.3333333,0,260.80056)"
         clip-path="url(#clipPath84)" />
      <path
         id="path85"
         d="m 258.3643,22.898952 h 13.40344 V 114.41488 H 258.3643 Z"
         style="fill:#cc8963;fill-opacity:1;fill-rule:nonzero;stroke:#ffffff;stroke-width:1;stroke-linecap:butt;stroke-linejoin:miter;stroke-miterlimit:10;stroke-dasharray:none;stroke-opacity:1"
         transform="matrix(1.3333333,0,0,-1.3333333,0,260.80056)"
         clip-path="url(#clipPath86)" />
      <path
         id="path87"
         d="M 70.716152,22.898952 H 84.119591 V 175.31192 H 70.716152 Z"
         style="fill:#5f9e6e;fill-opacity:1;fill-rule:nonzero;stroke:#ffffff;stroke-width:1;stroke-linecap:butt;stroke-linejoin:miter;stroke-miterlimit:10;stroke-dasharray:none;stroke-opacity:1"
         transform="matrix(1.3333333,0,0,-1.3333333,0,260.80056)"
         clip-path="url(#clipPath88)" />
      <path
         id="path89"
         d="m 137.73335,22.898952 h 13.40344 V 150.73318 h -13.40344 z"
         style="fill:#5f9e6e;fill-opacity:1;fill-rule:nonzero;stroke:#ffffff;stroke-width:1;stroke-linecap:butt;stroke-linejoin:miter;stroke-miterlimit:10;stroke-dasharray:none;stroke-opacity:1"
         transform="matrix(1.3333333,0,0,-1.3333333,0,260.80056)"
         clip-path="url(#clipPath90)" />
      <path
         id="path91"
         d="m 204.75054,22.898952 h 13.40344 V 172.49778 h -13.40344 z"
         style="fill:#5f9e6e;fill-opacity:1;fill-rule:nonzero;stroke:#ffffff;stroke-width:1;stroke-linecap:butt;stroke-linejoin:miter;stroke-miterlimit:10;stroke-dasharray:none;stroke-opacity:1"
         transform="matrix(1.3333333,0,0,-1.3333333,0,260.80056)"
         clip-path="url(#clipPath92)" />
      <path
         id="path93"
         d="m 271.76774,22.898952 h 13.40344 V 123.68871 h -13.40344 z"
         style="fill:#5f9e6e;fill-opacity:1;fill-rule:nonzero;stroke:#ffffff;stroke-width:1;stroke-linecap:butt;stroke-linejoin:miter;stroke-miterlimit:10;stroke-dasharray:none;stroke-opacity:1"
         transform="matrix(1.3333333,0,0,-1.3333333,0,260.80056)"
         clip-path="url(#clipPath94)" />
      <path
         id="path95"
         d="M 84.119591,22.898952 H 97.52303 V 173.58487 H 84.119591 Z"
         style="fill:#b55d60;fill-opacity:1;fill-rule:nonzero;stroke:#ffffff;stroke-width:1;stroke-linecap:butt;stroke-linejoin:miter;stroke-miterlimit:10;stroke-dasharray:none;stroke-opacity:1"
         transform="matrix(1.3333333,0,0,-1.3333333,0,260.80056)"
         clip-path="url(#clipPath96)" />
      <path
         id="path97"
         d="m 151.13679,22.898952 h 13.40343 V 147.65515 h -13.40343 z"
         style="fill:#b55d60;fill-opacity:1;fill-rule:nonzero;stroke:#ffffff;stroke-width:1;stroke-linecap:butt;stroke-linejoin:miter;stroke-miterlimit:10;stroke-dasharray:none;stroke-opacity:1"
         transform="matrix(1.3333333,0,0,-1.3333333,0,260.80056)"
         clip-path="url(#clipPath98)" />
      <path
         id="path99"
         d="m 218.15398,22.898952 h 13.40344 V 173.42179 h -13.40344 z"
         style="fill:#b55d60;fill-opacity:1;fill-rule:nonzero;stroke:#ffffff;stroke-width:1;stroke-linecap:butt;stroke-linejoin:miter;stroke-miterlimit:10;stroke-dasharray:none;stroke-opacity:1"
         transform="matrix(1.3333333,0,0,-1.3333333,0,260.80056)"
         clip-path="url(#clipPath100)" />
      <path
         id="path101"
         d="m 285.17118,22.898952 h 13.40343 v 98.663398 h -13.40343 z"
         style="fill:#b55d60;fill-opacity:1;fill-rule:nonzero;stroke:#ffffff;stroke-width:1;stroke-linecap:butt;stroke-linejoin:miter;stroke-miterlimit:10;stroke-dasharray:none;stroke-opacity:1"
         transform="matrix(1.3333333,0,0,-1.3333333,0,260.80056)"
         clip-path="url(#clipPath102)" />
      <path
         id="path103"
         d="M 37.207555,22.898952 V 185.97895"
         style="fill:none;stroke:#cccccc;stroke-width:1.25;stroke-linecap:square;stroke-linejoin:miter;stroke-miterlimit:10;stroke-dasharray:none;stroke-opacity:1"
         transform="matrix(1.3333333,0,0,-1.3333333,0,260.80056)" />
      <path
         id="path104"
         d="M 305.27633,22.898952 V 185.97895"
         style="fill:none;stroke:#cccccc;stroke-width:1.25;stroke-linecap:square;stroke-linejoin:miter;stroke-miterlimit:10;stroke-dasharray:none;stroke-opacity:1"
         transform="matrix(1.3333333,0,0,-1.3333333,0,260.80056)" />
      <path
         id="path105"
         d="M 37.207555,22.898952 H 305.27633"
         style="fill:none;stroke:#cccccc;stroke-width:1.25;stroke-linecap:square;stroke-linejoin:miter;stroke-miterlimit:10;stroke-dasharray:none;stroke-opacity:1"
         transform="matrix(1.3333333,0,0,-1.3333333,0,260.80056)" />
      <path
         id="path106"
         d="M 37.207555,185.97895 H 305.27633"
         style="fill:none;stroke:#cccccc;stroke-width:1.25;stroke-linecap:square;stroke-linejoin:miter;stroke-miterlimit:10;stroke-dasharray:none;stroke-opacity:1"
         transform="matrix(1.3333333,0,0,-1.3333333,0,260.80056)" />
      <path
         id="path107"
         d="m 236.83498,141.3549 h 63.54135 c 0.93334,0 1.4,0.46666 1.4,1.4 v 38.32405 c 0,0.93334 -0.46666,1.4 -1.4,1.4 h -63.54135 c -0.93334,0 -1.4,-0.46666 -1.4,-1.4 V 142.7549 c 0,-0.93334 0.46666,-1.4 1.4,-1.4 z"
         style="fill:#ffffff;fill-opacity:0.8;fill-rule:nonzero;stroke:#cccccc;stroke-width:1;stroke-linecap:butt;stroke-linejoin:miter;stroke-miterlimit:10;stroke-dasharray:none;stroke-opacity:0.8"
         transform="matrix(1.3333333,0,0,-1.3333333,0,260.80056)" />
      <path
         id="path108"
         d="m 238.23498,174.77895 h 14 v 4.9 h -14 z"
         style="fill:#5875a4;fill-opacity:1;fill-rule:nonzero;stroke:#ffffff;stroke-width:1;stroke-linecap:butt;stroke-linejoin:miter;stroke-miterlimit:10;stroke-dasharray:none;stroke-opacity:1"
         transform="matrix(1.3333333,0,0,-1.3333333,0,260.80056)" />
      <path
         id="path109"
         d="M 0.68064926,-4.8400238 V -1.800499e-4 H 2.661118 c 1.2539063,0 2.2734375,-1.0546874501 2.2734375,-2.3789062501 0,-1.3710937 -1.0195312,-2.4609375 -2.2734375,-2.4609375 z M 1.3720555,-0.4103363 V -4.4298675 H 2.473618 c 0.9609375,0 1.7695313,0.7617187 1.7695313,2.0507812 0,1.2890625 -0.84375,1.96875 -1.7695313,1.96875 z M 9.1562352,-2.2736175 V -2.7306488 H 6.730454 v -1.6054687 h 1.0195312 c 0.082031,0 0.1640625,0.011719 0.2460938,0.011719 H 9.3671727 V -4.8165863 H 6.027329 V -1.800499e-4 H 9.4726415 V -0.53924255 H 8.8515477 c -0.5859375,0 -1.171875,0.0117188 -1.7578125,0.0117188 H 6.730454 V -2.2736175 Z M 12.67479,-4.31268 h 0.65625 c 0.08203,0 0.164062,0.011719 0.246094,0.011719 h 1.007812 v -0.4921875 h -4.523437 v 0.4921875 h 0.996093 c 0.08203,0 0.175782,-0.011719 0.257813,-0.011719 h 0.65625 v 4.3124999501 h 0.703125 z m 5.302734,2.0507812 c 0.996094,-0.2929687 1.253907,-0.9023437 1.253907,-1.2773437 0,-0.7265625 -0.855469,-1.3007813 -1.863282,-1.3007813 h -1.839843 v 4.8398437501 h 0.691406 V -2.1915863 h 1.148437 l 1.359375,2.1914062501 h 0.703125 z m -1.757812,-0.3867187 v -1.78125 h 1.054687 c 0.796875,0 1.324219,0.375 1.324219,0.890625 0,0.4921875 -0.492187,0.890625 -1.324219,0.890625 z m 0,0"
         style="fill:#262626;fill-opacity:1;fill-rule:nonzero;stroke:none"
         aria-label="DETR"
         transform="matrix(1.3333333,0,0,1.3333333,343.77997,27.761959)" />
      <path
         id="path110"
         d="m 238.23498,165.02294 h 14 v 4.9 h -14 z"
         style="fill:#cc8963;fill-opacity:1;fill-rule:nonzero;stroke:#ffffff;stroke-width:1;stroke-linecap:butt;stroke-linejoin:miter;stroke-miterlimit:10;stroke-dasharray:none;stroke-opacity:1"
         transform="matrix(1.3333333,0,0,-1.3333333,0,260.80056)" />
      <path
         id="path111"
         d="m 4.3134618,-0.85580361 c -0.4804688,0.3046875 -0.703125,0.43359375 -1.40625,0.43359375 -1.078125,0 -1.734375,-1.00781254 -1.734375,-2.01562504 0,-1.03125 0.7148437,-1.9921875 1.734375,-1.9921875 0.4570312,0 0.9375,0.140625 1.2539062,0.3867188 l 0.1171875,-0.6328125 c -0.4921875,-0.1875 -0.8789062,-0.234375 -1.3945312,-0.234375 -1.3710938,0 -2.41406254,1.1367187 -2.41406254,2.484375 0,1.44140624 1.10156254,2.49609374 2.46093754,2.49609374 0.6796875,0 0.9726562,-0.140625 1.4296875,-0.38671875 z M 8.2216649,-1.5237724 c 0,-0.9257812 -0.7382813,-1.6757812 -1.640625,-1.6757812 -0.9140625,0 -1.640625,0.7617187 -1.640625,1.6757812 0,0.87890629 0.7382812,1.59375004 1.640625,1.59375004 0.9023437,0 1.640625,-0.71484375 1.640625,-1.59375004 z m -1.640625,1.11328129 c -0.5507813,0 -1.03125,-0.41015625 -1.03125,-1.19531249 0,-0.7851563 0.515625,-1.1367188 1.03125,-1.1367188 0.515625,0 1.03125,0.3632813 1.03125,1.1367188 0,0.79687499 -0.5039063,1.19531249 -1.03125,1.19531249 z M 11.678696,-2.0628349 c 0,-0.5507812 -0.164062,-1.1015625 -1.019531,-1.1015625 -0.398438,0 -0.7851564,0.1640625 -1.0898439,0.5273438 v -0.5039063 h -0.5625 v 3.1406250351 h 0.609375 V -1.6995536 c 0,-0.4570313 0.1992188,-1.0078125 0.7382809,-1.0078125 0.714844,0 0.714844,0.4921875 0.714844,0.6914062 v 2.0156250351 h 0.609375 z m 3.796875,-2.7773437 h -0.574219 v 2.0390625 c -0.457031,-0.328125 -0.902343,-0.3632813 -1.113281,-0.3632813 -0.726562,0 -1.289062,0.7265625 -1.289062,1.6171875 0,0.87890629 0.550781,1.61718754 1.277343,1.61718754 0.433594,0 0.832032,-0.19921875 1.101563,-0.43359375 v 0.3632812451 h 0.597656 z m -0.597656,3.97265624 c -0.175781,0.29296875 -0.445313,0.48046875 -0.773438,0.48046875 -0.492187,0 -0.996093,-0.33984375 -0.996093,-1.14843749 0,-0.8789063 0.597656,-1.171875 1.066406,-1.171875 0.28125,0 0.515625,0.1171875 0.703125,0.3515625 z m 4.347656,-3.97265624 v 4.8398437351 h 1.980469 c 1.253906,0 2.273437,-1.0546875351 2.273437,-2.3789062351 0,-1.3710938 -1.019531,-2.4609375 -2.273437,-2.4609375 z m 0.691406,4.42968749 V -4.4300224 h 1.101563 c 0.960937,0 1.769531,0.7617188 1.769531,2.0507813 0,1.2890625 -0.84375,1.96874999 -1.769531,1.96874999 z m 7.78418,-1.86328129 v -0.4570312 h -2.425781 v -1.6054688 h 1.019531 c 0.08203,0 0.164063,0.011719 0.246094,0.011719 h 1.371094 v -0.4921875 h -3.339844 v 4.8164062351 h 3.445312 V -0.53939736 H 27.39647 c -0.585938,0 -1.171875,0.0117188 -1.757813,0.0117188 H 25.275376 V -2.2737724 Z m 3.518555,-2.0390625 h 0.65625 c 0.08203,0 0.164062,0.011719 0.246094,0.011719 h 1.007812 v -0.4921875 h -4.523437 v 0.4921875 h 0.996093 c 0.08203,0 0.175782,-0.011719 0.257813,-0.011719 h 0.65625 v 4.3125000351 h 0.703125 z m 5.299804,2.0507813 c 0.996094,-0.2929688 1.253907,-0.9023438 1.253907,-1.2773438 0,-0.7265625 -0.855469,-1.3007812 -1.863282,-1.3007812 h -1.839843 v 4.8398437351 h 0.691406 V -2.1917411 h 1.148437 l 1.359375,2.1914062351 h 0.703125 z m -1.757812,-0.3867188 v -1.78125 h 1.054687 c 0.796875,0 1.324219,0.375 1.324219,0.890625 0,0.4921875 -0.492187,0.890625 -1.324219,0.890625 z m 0,0"
         style="fill:#262626;fill-opacity:1;fill-rule:nonzero;stroke:none"
         aria-label="CondDETR"
         transform="matrix(1.3333333,0,0,1.3333333,343.77997,40.769978)" />
      <path
         id="path112"
         d="m 238.23498,155.26692 h 14 v 4.9 h -14 z"
         style="fill:#5f9e6e;fill-opacity:1;fill-rule:nonzero;stroke:#ffffff;stroke-width:1;stroke-linecap:butt;stroke-linejoin:miter;stroke-miterlimit:10;stroke-dasharray:none;stroke-opacity:1"
         transform="matrix(1.3333333,0,0,-1.3333333,0,260.80056)" />
      <path
         id="path113"
         d="M 0.68064926,-4.8403334 V -4.896798e-4 H 2.661118 c 1.2539063,0 2.2734375,-1.0546875202 2.2734375,-2.3789062202 0,-1.3710938 -1.0195312,-2.4609375 -2.2734375,-2.4609375 z M 1.3720555,-0.41064593 V -4.4301772 H 2.473618 c 0.9609375,0 1.7695313,0.7617188 1.7695313,2.0507813 0,1.2890625 -0.84375,1.96874997 -1.7695313,1.96874997 z M 6.730454,-4.8403334 H 6.027329 v 4.8398437202 h 0.703125 z m 2.3173828,0 h -0.9375 V -4.896798e-4 H 8.6845555 V -4.2895522 h 0.011719 l 2.2851565,4.2890625202 h 0.949218 V -4.8403334 h -0.585937 v 4.28906247 z m 8.6396482,2.4375 c 0,-1.4414063 -1.054687,-2.578125 -2.320312,-2.578125 -1.253907,0 -2.320313,1.1367187 -2.320313,2.578125 0,1.44140622 1.078125,2.54296872 2.320313,2.54296872 1.253906,0 2.320312,-1.1015625 2.320312,-2.54296872 z m -2.320312,2.05078122 c -0.84375,0 -1.617188,-0.84375002 -1.617188,-2.15625002 0,-1.2421875 0.785156,-1.9921875 1.617188,-1.9921875 0.84375,0 1.617187,0.75 1.617187,1.9921875 0,1.3242188 -0.773437,2.15625002 -1.617187,2.15625002 z m 5.885742,-4.48828122 v 4.8398437202 h 1.980469 c 1.253906,0 2.273437,-1.0546875202 2.273437,-2.3789062202 0,-1.3710938 -1.019531,-2.4609375 -2.273437,-2.4609375 z m 0.691406,4.42968747 V -4.4301772 h 1.101563 c 0.960937,0 1.769531,0.7617188 1.769531,2.0507813 0,1.2890625 -0.84375,1.96874997 -1.769531,1.96874997 z m 7.78711,-1.86328127 v -0.4570312 h -2.425782 v -1.6054688 h 1.019532 c 0.08203,0 0.164062,0.011719 0.246093,0.011719 h 1.371094 v -0.4921875 h -3.339844 v 4.8164062202 h 3.445313 V -0.53955218 h -0.621094 c -0.585937,0 -1.171875,0.0117188 -1.757812,0.0117188 H 27.305649 V -2.2739272 Z m 3.515625,-2.0390625 h 0.65625 c 0.08203,0 0.164062,0.011719 0.246093,0.011719 h 1.007813 v -0.4921875 h -4.523438 v 0.4921875 h 0.996094 c 0.08203,0 0.175781,-0.011719 0.257813,-0.011719 h 0.65625 v 4.3125000202 h 0.703125 z m 5.302734,2.0507813 c 0.996094,-0.2929688 1.253906,-0.9023438 1.253906,-1.2773438 0,-0.7265625 -0.855469,-1.3007812 -1.863281,-1.3007812 h -1.839844 v 4.8398437202 h 0.691406 V -2.1918959 h 1.148438 l 1.359375,2.1914062202 h 0.703125 z m -1.757813,-0.3867188 v -1.78125 h 1.054688 c 0.796875,0 1.324219,0.375 1.324219,0.890625 0,0.4921875 -0.492188,0.890625 -1.324219,0.890625 z m 0,0"
         style="fill:#262626;fill-opacity:1;fill-rule:nonzero;stroke:none"
         aria-label="DINODETR"
         transform="matrix(1.3333333,0,0,1.3333333,343.77997,53.777997)" />
      <path
         id="path114"
         d="m 238.23498,145.51091 h 14 v 4.9 h -14 z"
         style="fill:#b55d60;fill-opacity:1;fill-rule:nonzero;stroke:#ffffff;stroke-width:1;stroke-linecap:butt;stroke-linejoin:miter;stroke-miterlimit:10;stroke-dasharray:none;stroke-opacity:1"
         transform="matrix(1.3333333,0,0,-1.3333333,0,260.80056)" />
      <path
         id="path115"
         d="M 3.129868,-2.2623632 C 4.1259618,-2.555332 4.3837743,-3.164707 4.3837743,-3.539707 c 0,-0.7265625 -0.8554688,-1.3007812 -1.8632813,-1.3007812 H 0.68064926 V -6.444948e-4 H 1.3720555 V -2.1920507 H 2.520493 L 3.879868,-6.444948e-4 H 4.582993 Z M 1.3720555,-2.649082 v -1.78125 H 2.426743 c 0.796875,0 1.3242188,0.375 1.3242188,0.890625 0,0.4921875 -0.4921875,0.890625 -1.3242188,0.890625 z m 6.4189453,1.88671876 c -0.3867187,0.28125 -0.8320312,0.375 -1.1367187,0.375 -0.5976563,0 -1.0664063,-0.50390625 -1.078125,-1.13671876 h 2.2851562 c 0,-0.328125 -0.035156,-0.796875 -0.3046875,-1.1835937 -0.2578125,-0.3632813 -0.6679687,-0.4921875 -1.0195312,-0.4921875 -0.84375,0 -1.5,0.75 -1.5,1.6289062 0,0.89062501 0.6914062,1.64062501 1.6171875,1.64062501 0.3984375,0 0.8203125,-0.1171875 1.171875,-0.33984375 z M 5.6230321,-1.945957 c 0.1523437,-0.5625 0.5742187,-0.796875 0.9140625,-0.796875 0.3164062,0 0.7617187,0.1523438 0.9023437,0.796875 z M 9.3964696,-2.6608007 H 10.42772 V -3.0943945 H 9.3964696 v -0.890625 H 8.8574071 v 0.890625 H 8.2245946 v 0.4335938 h 0.609375 v 1.76953121 c 0,0.46875 0.1171875,0.9609375 0.6210937,0.9609375 0.5039063,0 0.8906247,-0.1640625 1.1015627,-0.2578125 l -0.117188,-0.4453125 c -0.234375,0.1640625 -0.4804684,0.22265625 -0.6796872,0.22265625 -0.2929687,0 -0.3632812,-0.29296875 -0.3632812,-0.60937496 z m 2.5869144,-2.1210938 h -0.703125 v 0.703125 h 0.703125 z m -0.05859,1.6875 h -0.585938 v 3.0937500052 h 0.585938 z m 3.84082,1.03125 c 0,-0.5507812 -0.164062,-1.1015625 -1.019531,-1.1015625 -0.398438,0 -0.785156,0.1640625 -1.089844,0.5273438 v -0.5039063 h -0.5625 V -6.444948e-4 H 13.70311 V -1.6998632 c 0,-0.4570313 0.199219,-1.0078125 0.738281,-1.0078125 0.714844,0 0.714844,0.4921875 0.714844,0.6914062 v 2.0156250052 h 0.609375 z m 3.539063,0.058594 c 0,-0.7148438 -0.539063,-1.1953125 -1.230469,-1.1953125 -0.433594,0 -0.773438,0.09375 -1.160156,0.2929687 l 0.03516,0.515625 c 0.234375,-0.1523437 0.574219,-0.3632812 1.125,-0.3632812 0.304687,0 0.632812,0.234375 0.632812,0.75 v 0.28125 c -1.03125,0.035156 -2.050781,0.2460937 -2.050781,0.90234371 0,0.3515625 0.234375,0.890625 0.84375,0.890625 0.304688,0 0.855469,-0.05859375 1.21875,-0.33984375 v 0.2695312452 h 0.585938 z m -0.597657,1.01953121 c 0,0.12890625 0,0.31640625 -0.246093,0.45703125 -0.222657,0.12890625 -0.492188,0.140625 -0.574219,0.140625 -0.386719,0 -0.679688,-0.17578125 -0.679688,-0.4453125 0,-0.44531246 1.183594,-0.48046876 1.5,-0.50390626 z M 26.760731,-4.840488 h -0.597656 v 3.2109375 c 0,0.93749996 -0.632812,1.35937496 -1.230469,1.35937496 -0.597656,0 -1.183593,-0.43359375 -1.183593,-1.34765626 V -4.840488 h -0.703125 v 3.2109375 c 0,1.01953121 0.878906,1.76953121 1.875,1.76953121 0.996093,0 1.839843,-0.75 1.839843,-1.76953121 z m 2.739258,3.5039062 v -0.4335937 h -1.96875 v 0.4335937 z M 31.55956,-4.840488 h -0.9375 v 4.8398437052 h 0.574218 V -4.289707 h 0.01172 l 2.285156,4.2890625052 h 0.949219 V -4.8404882 h -0.585937 v 4.28906246 z m 6.588867,4.07812496 c -0.386719,0.28125 -0.832032,0.375 -1.136719,0.375 -0.597656,0 -1.066406,-0.50390625 -1.078125,-1.13671876 h 2.285156 c 0,-0.328125 -0.03516,-0.796875 -0.304687,-1.1835937 -0.257813,-0.3632813 -0.667969,-0.4921875 -1.019532,-0.4921875 -0.84375,0 -1.5,0.75 -1.5,1.6289062 0,0.89062501 0.691407,1.64062501 1.617188,1.64062501 0.398437,0 0.820312,-0.1171875 1.171875,-0.33984375 z M 35.980454,-1.945957 c 0.152344,-0.5625 0.574219,-0.796875 0.914062,-0.796875 0.316407,0 0.761719,0.1523438 0.902344,0.796875 z m 3.773437,-0.7148437 h 1.03125 v -0.4335938 h -1.03125 v -0.890625 h -0.539062 v 0.890625 h -0.632813 v 0.4335938 h 0.609375 v 1.76953121 c 0,0.46875 0.117188,0.9609375 0.621094,0.9609375 0.503906,0 0.890625,-0.1640625 1.101563,-0.2578125 l -0.117188,-0.4453125 c -0.234375,0.1640625 -0.480469,0.22265625 -0.679687,0.22265625 -0.292969,0 -0.363282,-0.29296875 -0.363282,-0.60937496 z m 0,0"
         style="fill:#262626;fill-opacity:1;fill-rule:nonzero;stroke:none"
         aria-label="RetinaU-Net"
         transform="matrix(1.3333333,0,0,1.3333333,343.77997,66.786016)" />
    </g>
  </g>
</svg>
