<?xml version="1.0" encoding="UTF-8" standalone="no"?>
<svg
   width="400"
   height="400"
   viewBox="0 0 400 400"
   version="1.1"
   id="svg5"
   sodipodi:docname="nnDetection.svg"
   inkscape:version="1.3 (0e150ed, 2023-07-21)"
   xmlns:inkscape="http://www.inkscape.org/namespaces/inkscape"
   xmlns:sodipodi="http://sodipodi.sourceforge.net/DTD/sodipodi-0.dtd"
   xmlns="http://www.w3.org/2000/svg"
   xmlns:svg="http://www.w3.org/2000/svg"
   xmlns:rdf="http://www.w3.org/1999/02/22-rdf-syntax-ns#"
   xmlns:cc="http://creativecommons.org/ns#"
   xmlns:dc="http://purl.org/dc/elements/1.1/">
  <defs
     id="defs5">
    <clipPath
       clipPathUnits="userSpaceOnUse"
       id="clipPath8">
      <rect
         style="fill:#000000;fill-opacity:0.258964;stroke-width:0.983332"
         id="rect8"
         width="384.51694"
         height="143.27542"
         x="-1.2245762"
         y="7.2737876e-08" />
    </clipPath>
    <clipPath
       clipPathUnits="userSpaceOnUse"
       id="clipPath9">
      <rect
         style="fill:#000000;fill-opacity:0.258964;stroke-width:0.890723"
         id="rect9"
         width="384.51694"
         height="117.55932"
         x="377.74881"
         y="13.21062" />
    </clipPath>
  </defs>
  <sodipodi:namedview
     id="namedview5"
     pagecolor="#ffffff"
     bordercolor="#000000"
     borderopacity="0.25"
     inkscape:showpageshadow="2"
     inkscape:pageopacity="0.0"
     inkscape:pagecheckerboard="0"
     inkscape:deskcolor="#d1d1d1"
     inkscape:zoom="0.816609"
     inkscape:cx="382.68008"
     inkscape:cy="144.5"
     inkscape:window-width="1920"
     inkscape:window-height="1027"
     inkscape:window-x="1512"
     inkscape:window-y="25"
     inkscape:window-maximized="1"
     inkscape:current-layer="svg5" />
  <title
     id="title1">Group</title>
  <g
     id="Page-1"
     stroke="none"
     stroke-width="1"
     fill="none"
     fill-rule="evenodd"
     clip-path="url(#clipPath8)"
     transform="translate(11.021182,126.13136)">
    <g
       id="Group"
       transform="translate(1.0073,0.397975)">
      <g
         id="Group-53"
         transform="translate(7.6267)"
         font-family="Arial-BoldMT, Arial"
         font-weight="bold">
        <text
           id="nnDet"
           font-size="126px"
           letter-spacing="-0.0002"
           fill="#5e5e5e"><tspan
             x="0"
             y="114"
             id="tspan1">nnDet</tspan></text>
        <text
           id="-"
           font-size="53px" />
        <text
           id="ection"
           font-size="126px"
           letter-spacing="0.0252"
           fill="#5e5e5e"><tspan
             x="371.68411"
             y="114"
             id="tspan2">ec</tspan><tspan
             x="511.88489"
             y="114"
             id="tspan3">t</tspan><tspan
             x="553.84387"
             y="114"
             letter-spacing="-0.0252"
             id="tspan4">io</tspan><tspan
             x="665.76611"
             y="114"
             id="tspan5">n</tspan></text>
      </g>
      <polygon
         id="Stroke-58"
         stroke="#5cc2b2"
         stroke-width="7"
         points="371.6251,11.185525 371.6251,135.67732 5.2865,135.67732 5.2865,11.185525 " />
      <g
         id="Group-63"
         transform="translate(192.0651,145.28721)">
        <path
           d="M 68.4884,0 C 65.666,0.01301911 62.8409,1.0575191 62.8409,3.0865191 V 28.623619 c 0,3.217 -1.2356,6.1475 -3.2578,8.348 0.0027,-2.8041 0.0052,-5.1426 0.0107,-6.837 C 59.661,9.4919191 45.7074,6.8576191 30.8311,22.633119 4.3138,50.752519 0,81.300419 0,121.93102 c 0,6.1024 3.8963,11.3802 9.977,10.8664 19.9253,-1.6834 49.6168,-11.0373 49.6168,-32.920701 0,-7.655 -0.0217,-31.1755 -0.0214,-49.4239 3.4639,-1.4478 6.5159,-3.6974 8.916,-6.5155 2.4718,2.9021 5.6236,5.1918 9.2161,6.6334 3e-4,18.2309 -0.0107,41.6685 -0.0107,49.306 0,21.883101 29.6808,31.237301 49.6061,32.920701 6.0807,0.5138 9.9876,-4.764 9.9876,-10.8664 0,-40.630601 -4.3137,-71.178501 -30.831,-99.297901 -14.8764,-15.7751999 -28.8299,-13.1407999 -28.7627,7.5015 0.0058,1.7602 0.008,4.2194 0.0107,7.1692 -2.2067,-2.2327 -3.5793,-5.3004 -3.5793,-8.6802 V 3.0865191 C 74.1252,1.0061191 71.3108,-0.01268089 68.4884,0 Z"
           id="Fill-60"
           fill="#90d481" />
        <path
           d="M 68.48836,1.9108885e-5 C 65.66592,0.01300037 62.84083,1.0575421 62.84083,3.0864551 V 28.623579 c 0,3.21696 -1.23557,6.14749 -3.25778,8.34805 0.0027,-2.80409 0.0052,-5.14266 0.01072,-6.83705 C 59.66098,9.4919321 45.7074,6.8575851 30.83101,22.633119 4.313727,50.752539 0,81.300399 0,121.93102 c 0,6.1024 3.896223,11.3801 9.976946,10.8664 19.925254,-1.6834 49.616834,-11.0373 49.616824,-32.920681 0,-7.65509 -0.02177,-31.17553 -0.02144,-49.42391 3.46388,-1.44783 6.51587,-3.6974 8.91603,-6.51556 2.47179,2.90217 5.62364,5.19179 9.21608,6.63344 3.5e-4,18.23086 -0.01072,41.66845 -0.01071,49.30603 0,21.882981 29.68087,31.237281 49.60607,32.920681 6.0808,0.5137 9.9877,-4.764 9.9877,-10.8664 0,-40.630641 -4.3137,-71.178481 -30.831,-99.297901 -14.87641,-15.7751859 -28.83,-13.1408409 -28.76277,7.50146 0.0058,1.76023 0.008,4.21942 0.01071,7.16926 -2.20671,-2.23278 -3.57926,-5.3004 -3.57927,-8.68026 V 3.0864551 c 0,-2.080348 -2.81438,-3.09917677 -5.63681,-3.086435991115 z"
           id="Stroke-62"
           stroke="#000000"
           stroke-width="2"
           stroke-linejoin="round" />
      </g>
      <g
         id="Group-67"
         transform="translate(0,149.65912)">
        <path
           d="M 57.4288,0.0524 C 48.297,0.5809 41.1156,4.9789 36.359,9.207 c -1.6233,1.4346 -2.9517,3.2442 -3.6689,5.3206 -0.6796,2.0008 -0.8306,4.044 -0.3775,5.9694 0.5285,2.1895 1.7743,4.1148 3.3976,5.2851 0.453,0.3398 1.1372,0.2289 1.4392,-0.2241 2.4916,-3.5486 6.4932,-6.0874 10.1928,-6.4649 0.5663,-0.0755 1.0995,0.2737 1.2505,0.8022 0.1888,0.7173 -0.2737,1.3897 -0.9909,1.4275 -3.0956,0.3397 -6.4484,2.4987 -8.6002,5.5565 -1.4346,2.0385 -2.0386,4.0748 -1.6988,5.698 0.1132,0.5663 -0.118,1.1656 -0.6843,1.3921 -0.151,0.0377 -0.2619,0.0825 -0.4129,0.0826 -0.5285,0 -0.9839,-0.3445 -1.0971,-0.873 -0.2643,-1.0571 -0.2194,-2.225 0.0826,-3.433 0.1887,-0.755 -0.1133,-1.5502 -0.755,-2.0409 -2.1141,-1.5101 -3.6996,-3.9238 -4.3414,-6.6419 -0.1888,-0.755 -0.3068,-1.51 -0.3068,-2.265 C 29.7502,17.8166 28.8796,17.1348 27.9358,17.3235 24.2362,18.154 16.3486,21.3959 9.2136,31.7397 4.1172,39.7429 1.93,48.7277 2.9493,53.4466 c 0.1132,1.0948 0.4128,2.1141 0.7904,3.0201 0.3775,0.8683 1.4345,1.2104 2.265,0.7196 2.1519,-1.2835 4.2612,-1.8852 6.111,-2.1117 3.7374,-0.4908 6.9509,0.453 8.9895,1.3213 1.2458,0.5285 2.4161,1.1703 3.3976,1.8876 0.6418,0.453 1.5431,0.2666 1.9583,-0.4129 0.9816,-1.6233 2.2368,-2.9824 3.6336,-3.9639 0.453,-0.302 1.0853,-0.3091 1.4628,0.1062 0.5285,0.5285 0.4248,1.3685 -0.1415,1.746 -2.5671,1.7365 -4.5373,5.2426 -4.9903,8.9422 -0.302,2.4539 0.1109,4.5703 1.168,5.8161 0.3775,0.453 0.4601,1.0924 0.0825,1.5454 -0.2265,0.2643 -0.5332,0.3775 -0.8729,0.3775 -0.3021,0 -0.5993,-0.1132 -0.8259,-0.3775 -1.5477,-1.7365 -2.1942,-4.4593 -1.8167,-7.6682 0.0755,-0.604 0.1911,-1.1655 0.3421,-1.7696 0.1887,-0.7172 -0.0354,-1.5147 -0.6017,-2.0055 -2.3028,-2.0008 -6.7999,-3.919 -11.4433,-3.315 -0.1887,0.0377 -0.3775,0.033 -0.5662,0.0708 C 7.7012,58.0923 4.1904,60.9992 2.4538,64.9253 0.8682,68.5494 0,72.5204 0,76.7107 c 0,16.8748 14.2723,30.5312 31.8643,30.5312 8.947,0 17.0635,-3.5486 22.8394,-9.249 0.3397,-0.302 0.2643,-0.9037 -0.1888,-1.1679 -0.7927,-0.453 -1.5147,-0.9461 -2.1943,-1.4747 -0.4152,-0.3397 -0.5969,-0.9721 -0.2949,-1.4628 0.3775,-0.6418 1.1703,-0.7574 1.6988,-0.3421 1.2835,1.0947 6.1181,4.2683 10.5349,4.3059 4.9832,0.0378 9.0603,-4.1621 9.0603,-9.2962 0,-1.057 -0.1935,-2.0763 -0.4955,-3.0201 -1.057,-2.4915 -3.0932,-4.2941 -6.0756,-5.4267 -6.4554,-2.4538 -15.6266,-0.9131 -20.9872,1.805 -5.3229,2.6803 -8.7984,7.5951 -8.8361,7.6328 l -0.1888,0.2595 c -0.3397,0.4908 -1.0972,0.5286 -1.4746,0 l -0.1888,-0.2595 c -4.3414,-6.0779 -14.8763,-8.4963 -20.9165,-4.8723 -0.5285,0.302 -1.2057,0.1841 -1.5454,-0.3067 -0.3775,-0.5285 -0.2241,-1.2764 0.3421,-1.6162 6.2289,-3.8129 16.1929,-2.1589 21.931,3.1263 0.6418,0.5662 1.5809,0.5332 2.1471,-0.0708 1.6611,-1.8121 4.3438,-4.2707 7.7036,-5.9694 5.927,-2.9824 15.6691,-4.6033 22.8041,-1.923 2.0008,0.7551 3.6595,1.8168 4.943,3.1381 0.0755,-0.2265 0.1958,-0.4931 0.2713,-0.7196 -0.4907,-10.4571 -4.6812,-16.5798 -13.0241,-19.1469 -0.604,-0.1888 -0.9886,-0.7904 -0.8376,-1.3567 0.151,-0.6418 0.7975,-1.0146 1.4393,-0.8258 3.9261,1.1703 7.0146,3.0885 9.3552,5.7688 0.453,0.4908 1.2504,0.4955 1.628,-0.0708 1.208,-1.661 2.0055,-4.004 2.0055,-6.571 0,-1.8498 -0.4176,-3.5415 -1.0971,-5.0138 -0.0378,-0.0755 -0.0803,-0.1605 -0.118,-0.236 0,0 0,0.0024 0,-0.0354 -0.151,-0.2642 -0.2596,-0.5261 -0.4483,-0.7904 -0.151,-0.2642 -0.2997,-0.5238 -0.4129,-0.8258 -1.1325,-1.661 -2.9871,-3.0602 -5.4031,-4.1172 -4.4924,-1.9253 -9.931,-2.1518 -13.555,-0.5663 -4.1904,1.8498 -7.2883,5.6226 -8.0811,9.8507 -0.5286,2.7558 -0.2596,6.9108 3.893,11.1012 0.4531,0.453 0.4908,1.2458 0,1.6988 -0.2265,0.1887 -0.4907,0.2595 -0.755,0.2595 -0.302,0 -0.5639,-0.1156 -0.7904,-0.3421 -3.8129,-3.8129 -5.3984,-8.4491 -4.5301,-13.1303 0.1887,-0.9815 0.4482,-1.9253 0.8258,-2.8313 0.3775,-0.9061 0.3067,-1.9655 -0.2596,-2.796 -0.0755,-0.1132 -0.118,-0.151 -0.1179,-0.1887 -1.4346,-2.3406 -8.8291,-11.2876 -23.6653,-9.6266 -0.6795,0.0755 -1.326,-0.486 -1.2505,-1.2033 0.0378,-0.5662 0.4955,-0.9886 1.0618,-1.0263 13.5526,-1.4723 22.2283,5.5163 25.5882,10.122 0.3775,0.5285 1.175,0.5615 1.628,0.0708 1.5478,-1.6988 3.4377,-3.0909 5.6272,-4.0347 4.1527,-1.812 10.3037,-1.5855 15.3246,0.5663 1.8121,0.755 3.3198,1.7342 4.5656,2.8667 0.1132,-0.2265 0.2289,-0.4931 0.3421,-0.7196 1.0193,-1.6233 1.628,-3.7374 1.628,-6.0402 0,-2.5671 -0.7598,-4.8722 -2.0055,-6.5711 -0.0378,-0.0377 -0.033,-0.0683 -0.0708,-0.1061 -0.6418,-0.9061 -1.7837,-1.3662 -2.8785,-1.0264 -1.4346,0.453 -2.9069,0.6489 -4.3414,0.6489 -2.1141,0 -4.1149,-0.413 -5.6627,-0.9792 -0.5285,-0.1888 -0.8683,-0.7196 -0.755,-1.2859 0.1133,-0.7173 0.8683,-1.0995 1.51,-0.873 2.8691,1.0948 7.2199,1.3662 10.4288,-0.4837 0.2265,-0.151 0.4459,-0.3091 0.6724,-0.4601 0.7551,-0.5663 1.3638,-1.2811 1.8168,-2.1117 0.755,-1.51 1.2387,-3.3575 1.2387,-5.3205 v -0.0354 c 0,-1.5856 -0.5615,-3.1806 -1.5808,-4.3886 -3.6241,-4.3791 -8.1165,-6.1109 -13.4017,-5.1672 -0.5662,0.1133 -1.1325,-0.1557 -1.3213,-0.6842 -0.2642,-0.6795 0.1558,-1.3945 0.873,-1.5455 5.0209,-0.906 9.5086,0.3044 13.2837,3.551 0.4908,0.453 1.2883,0.1935 1.4393,-0.4483 0.1132,-0.604 0.2265,-1.4416 0.1887,-2.5364 C 72.6024,5.0898 70.5237,0.68 61.4635,0.076 60.0809,-0.0184 58.7334,-0.0231 57.4288,0.0524 Z m 34.5659,0 c -1.3045,-0.0755 -2.652,-0.0708 -4.0346,0.0236 -9.0603,0.604 -11.139,5.0138 -11.29,11.2427 -0.0377,1.0948 0.0755,1.9324 0.1888,2.5364 0.151,0.6418 0.9484,0.9013 1.4392,0.4483 3.7751,-3.2466 8.2628,-4.457 13.2837,-3.551 0.7173,0.151 1.1372,0.866 0.873,1.5455 -0.1888,0.5285 -0.755,0.7975 -1.3213,0.6842 -5.2852,-0.9438 -9.7776,0.7881 -13.4016,5.1672 -1.0193,1.2081 -1.5809,2.803 -1.5809,4.3886 v 0.0354 c 1e-4,1.963 0.4837,3.8105 1.2387,5.3205 0.453,0.8306 1.0618,1.5454 1.8168,2.1117 0.2265,0.151 0.446,0.3091 0.6725,0.4601 3.2088,1.8498 7.5596,1.5785 10.4287,0.4837 0.6418,-0.2265 1.3968,0.1557 1.51,0.873 0.1133,0.5663 -0.2264,1.0971 -0.755,1.2859 -1.5478,0.5662 -3.5486,0.9792 -5.6626,0.9792 -1.4346,0 -2.9069,-0.1959 -4.3414,-0.6489 -1.0948,-0.3398 -2.2368,0.1203 -2.8785,1.0264 -0.0378,0.0377 -0.0331,0.0684 -0.0708,0.1061 -1.2458,1.6989 -2.0056,4.004 -2.0056,6.5711 0,2.3028 0.6088,4.4169 1.6281,6.0402 0.1132,0.2265 0.2288,0.4931 0.3421,0.7196 1.2458,-1.1325 2.7534,-2.1117 4.5655,-2.8667 5.0209,-2.1518 11.172,-2.3783 15.3246,-0.5663 2.1896,0.9438 4.0795,2.3359 5.6273,4.0347 0.453,0.4907 1.2505,0.4577 1.628,-0.0708 3.3599,-4.6057 12.0355,-11.5943 25.5882,-10.122 0.5662,0.0377 1.024,0.4601 1.0617,1.0263 0.0755,0.7173 -0.5709,1.2789 -1.2505,1.2033 -14.8362,-1.661 -22.2306,7.286 -23.6652,9.6266 0,0.0377 -0.0425,0.0755 -0.118,0.1887 -0.5663,0.8305 -0.637,1.8899 -0.2595,2.796 0.3775,0.906 0.637,1.8498 0.8258,2.8313 0.8682,4.6812 -0.7173,9.3174 -4.5302,13.1303 -0.2264,0.2265 -0.4883,0.3421 -0.7904,0.3421 -0.2642,0 -0.5285,-0.0708 -0.755,-0.2595 -0.4908,-0.453 -0.453,-1.2458 0,-1.6988 4.1526,-4.1904 4.4216,-8.3454 3.8931,-11.1012 -0.7928,-4.2281 -3.8908,-8.0009 -8.0811,-9.8507 -3.6241,-1.5855 -9.0626,-1.359 -13.555,0.5663 -2.4161,1.057 -4.2706,2.4562 -5.4031,4.1172 -0.1133,0.302 -0.2619,0.5616 -0.4129,0.8258 -0.1888,0.2643 -0.2973,0.5262 -0.4483,0.7904 0,0.0378 0,0.0354 0,0.0354 -0.0378,0.0755 -0.0803,0.1605 -0.118,0.236 -0.6795,1.4723 -1.0972,3.164 -1.0972,5.0138 0,2.5671 0.7976,4.91 2.0056,6.571 0.3775,0.5663 1.175,0.5616 1.628,0.0708 2.3406,-2.6803 5.429,-4.5985 9.3552,-5.7688 0.6417,-0.1888 1.2882,0.184 1.4392,0.8258 0.1511,0.5663 -0.2336,1.1679 -0.8376,1.3567 -8.3429,2.567 -12.5333,8.6898 -13.0241,19.1469 0.0755,0.2265 0.1959,0.4931 0.2713,0.7196 1.2836,-1.3213 2.9422,-2.383 4.9431,-3.1381 7.135,-2.6803 16.8771,-1.0594 22.804,1.923 3.3599,1.6988 6.0425,4.1573 7.7036,5.9694 0.5663,0.604 1.5054,0.637 2.1471,0.0708 5.7382,-5.2852 15.7021,-6.9391 21.931,-3.1263 0.5663,0.3398 0.7197,1.0877 0.3422,1.6162 -0.3398,0.4908 -1.017,0.6088 -1.5455,0.3067 -6.0402,-3.6241 -16.5751,-1.2056 -20.9165,4.8723 l -0.1887,0.2595 c -0.3775,0.5286 -1.1349,0.4908 -1.4747,0 l -0.1887,-0.2595 c -0.0378,-0.0377 -3.5133,-4.9525 -8.8361,-7.6328 -5.3607,-2.7181 -14.5319,-4.2588 -20.9873,-1.805 -2.9823,1.1326 -5.0185,2.9352 -6.0756,5.4267 -0.302,0.9438 -0.4955,1.9631 -0.4955,3.0201 0,5.1341 4.0772,9.334 9.0603,9.2962 4.4169,-0.0377 9.2514,-3.2111 10.5349,-4.3059 0.5286,-0.4153 1.3213,-0.2997 1.6988,0.3421 0.302,0.4908 0.1203,1.123 -0.2949,1.4628 -0.6795,0.5286 -1.4015,1.0217 -2.1943,1.4747 -0.453,0.2642 -0.5285,0.8659 -0.1887,1.1679 5.7759,5.7004 13.8924,9.249 22.8394,9.249 17.592,0 31.8643,-13.6564 31.8643,-30.5312 0,-4.1903 -0.8683,-8.1613 -2.4538,-11.7854 -1.7366,-3.9261 -5.2474,-6.8329 -9.4378,-7.5502 -0.1888,-0.0378 -0.3775,-0.0331 -0.5663,-0.0708 -4.6434,-0.604 -9.1405,1.3142 -11.4433,3.315 -0.5663,0.4908 -0.7904,1.2883 -0.6016,2.0055 0.151,0.6041 0.2666,1.1656 0.3421,1.7696 0.3775,3.2089 -0.269,5.9317 -1.8168,7.6682 -0.2265,0.2643 -0.5238,0.3775 -0.8258,0.3775 -0.3398,0 -0.6465,-0.1132 -0.873,-0.3775 -0.3775,-0.453 -0.2949,-1.0924 0.0826,-1.5454 1.057,-1.2458 1.4699,-3.3622 1.1679,-5.8161 -0.453,-3.6996 -2.4231,-7.2057 -4.9902,-8.9422 -0.5663,-0.3776 -0.6701,-1.2175 -0.1416,-1.746 0.3776,-0.4153 1.0099,-0.4082 1.4629,-0.1062 1.3967,0.9815 2.652,2.3406 3.6335,3.9639 0.4153,0.6795 1.3166,0.8659 1.9584,0.4129 0.9815,-0.7173 2.1517,-1.3591 3.3976,-1.8876 2.0385,-0.8683 5.2521,-1.8121 8.9894,-1.3213 1.8499,0.2265 3.9592,0.8282 6.111,2.1117 0.8305,0.4908 1.8876,0.1487 2.2651,-0.7196 0.3775,-0.906 0.6771,-1.9253 0.7904,-3.0201 1.0192,-4.7189 -1.1679,-13.7037 -6.2643,-21.7069 -7.135,-10.3438 -15.0226,-13.5857 -18.7222,-14.4162 -0.9438,-0.1888 -1.8145,0.4931 -1.8522,1.4747 0,0.755 -0.118,1.51 -0.3067,2.265 -0.6418,2.7181 -2.2274,5.1318 -4.3414,6.6419 -0.6418,0.4907 -0.9438,1.2859 -0.755,2.0409 0.3019,1.208 0.3468,2.376 0.0825,3.433 -0.1132,0.5285 -0.5685,0.873 -1.0971,0.873 -0.151,0 -0.2619,-0.0449 -0.4129,-0.0826 -0.5663,-0.2265 -0.7975,-0.8258 -0.6842,-1.3921 0.3398,-1.6233 -0.2643,-3.6595 -1.6988,-5.698 -2.1519,-3.0579 -5.5046,-5.2168 -8.6002,-5.5565 -0.7173,-0.0378 -1.1797,-0.7102 -0.991,-1.4275 0.151,-0.5285 0.6843,-0.8777 1.2505,-0.8022 3.6996,0.3775 7.7013,2.9163 10.1928,6.4649 0.302,0.453 0.9863,0.5639 1.4393,0.2241 1.6233,-1.1703 2.869,-3.0956 3.3976,-5.2851 0.453,-1.9253 0.302,-3.9686 -0.3775,-5.9694 -0.7173,-2.0764 -2.0456,-3.886 -3.669,-5.3206 C 108.3079,4.9789 101.1265,0.5809 91.9947,0.0524 Z M 74.7472,94.8313 c -2.0763,3.5486 -5.8538,5.9222 -10.1574,5.9222 -1.5101,0 -3.0178,-0.3068 -4.3768,-0.873 -1.2458,-0.4908 -2.678,-0.2572 -3.6218,0.6488 -6.4554,6.1157 -15.249,9.6619 -24.3848,9.6619 -2.0763,0 -4.122,-0.1911 -6.1228,-0.5308 5.1719,8.645 14.6144,14.428 25.4112,14.428 8.3053,0 15.5559,-3.4401 20.9165,-8.9895 0.6418,-0.6795 1.5029,-1.0146 2.3713,-1.0146 0.8682,0 1.7413,0.335 2.383,1.0146 5.3607,5.5494 12.6112,8.9895 20.9165,8.9895 10.7968,0 20.2274,-5.783 25.3994,-14.428 -1.9631,0.3397 -3.9969,0.5309 -6.111,0.5308 -9.249,0 -18.0497,-3.5462 -24.4674,-9.6619 -0.9815,-0.9438 -2.3759,-1.1774 -3.6218,-0.6488 -1.3967,0.5662 -2.8666,0.873 -4.3767,0.873 -4.3037,0 -8.0811,-2.3736 -10.1574,-5.9222 z"
           id="Fill-64"
           fill="#d478b8" />
        <path
           d="M 57.42888,0.05235331 C 48.29702,0.5808685 41.11568,4.978877 36.35904,9.206998 c -1.6233,1.434542 -2.95167,3.244212 -3.66894,5.320542 -0.67952,2.00081 -0.83051,4.04409 -0.37751,5.9694 0.52852,2.18956 1.77432,4.11485 3.3976,5.28515 0.45301,0.33977 1.13725,0.22889 1.43926,-0.22414 2.49158,-3.54861 6.49317,-6.08738 10.1928,-6.46488 0.56627,-0.0755 1.0995,0.27367 1.25051,0.80221 0.18875,0.71727 -0.2737,1.38975 -0.99097,1.42746 -3.09559,0.33977 -6.44836,2.4987 -8.60017,5.5565 -1.43455,2.03856 -2.03856,4.0748 -1.6988,5.69805 0.11325,0.56627 -0.11799,1.16556 -0.68424,1.39208 -0.15101,0.03775 -0.26191,0.08255 -0.4129,0.08258 -0.52852,0 -0.98392,-0.34447 -1.09715,-0.873 -0.26425,-1.05703 -0.21942,-2.22492 0.08258,-3.43299 0.18876,-0.75502 -0.11325,-1.55017 -0.75502,-2.04092 -2.11406,-1.51004 -3.69959,-3.92374 -4.34138,-6.64183 -0.18875,-0.75503 -0.30672,-1.51005 -0.30672,-2.26507 -0.03775,-0.98153 -0.90838,-1.66339 -1.85217,-1.47465 -3.69961,0.83052 -11.5872,4.07243 -18.722189,14.4162 -5.0964,8.00324 -7.283606,16.98801 -6.264325,21.70689 0.113253,1.09478 0.412876,2.11409 0.790413,3.02009 0.377512,0.86827 1.434534,1.21039 2.265067,0.71963 2.151814,-1.28354 4.261174,-1.88521 6.110964,-2.1117 3.73736,-0.49076 6.95093,0.45301 8.98948,1.32129 1.24579,0.52851 2.41607,1.1703 3.3976,1.88756 0.64177,0.45301 1.54308,0.26663 1.95834,-0.41291 0.98153,-1.6233 2.23673,-2.98234 3.63354,-3.96386 0.45302,-0.30201 1.08535,-0.3091 1.46286,0.10617 0.52852,0.52851 0.42472,1.3685 -0.14157,1.74599 -2.56707,1.73655 -4.53722,5.24266 -4.99022,8.94229 -0.30201,2.45383 0.1109,4.57025 1.16792,5.81603 0.37751,0.45302 0.4601,1.09242 0.08258,1.54544 -0.2265,0.26426 -0.53322,0.37751 -0.87299,0.37751 -0.30201,0 -0.59928,-0.11326 -0.82581,-0.37751 -1.54779,-1.73655 -2.19427,-4.45933 -1.81677,-7.66819 0.0755,-0.60402 0.19112,-1.16555 0.34212,-1.76959 0.18876,-0.71727 -0.03538,-1.51478 -0.60166,-2.00552 -2.30281,-2.00081 -6.79992,-3.91903 -11.4433,-3.31502 -0.18876,0.03774 -0.37751,0.03299 -0.56627,0.07078 C 7.701227,58.09233 4.190393,60.99919 2.453822,64.92528 0.8682755,68.54938 0,72.52034 0,76.71071 c 0,16.87474 14.27229,30.53119 31.8643,30.53119 8.94701,0 17.0635,-3.5486 22.83942,-9.24901 0.33976,-0.302 0.26429,-0.90373 -0.18876,-1.16793 -0.79277,-0.45301 -1.51476,-0.94608 -2.19428,-1.47464 -0.41526,-0.33977 -0.59691,-0.9721 -0.29493,-1.46286 0.37751,-0.64177 1.17028,-0.75733 1.6988,-0.34212 1.28354,1.09478 6.11809,4.2683 10.53492,4.30598 4.98315,0.03776 9.06027,-4.16214 9.06027,-9.2962 0,-1.05703 -0.19349,-2.07636 -0.49549,-3.02009 -1.05703,-2.49158 -3.09325,-4.29413 -6.07557,-5.42672 -6.45544,-2.45383 -15.62662,-0.91313 -20.98725,1.80497 -5.32291,2.68033 -8.79834,7.59506 -8.83612,7.6328 l -0.18876,0.25954 c -0.33976,0.49076 -1.09717,0.52861 -1.47465,0 l -0.18876,-0.25954 c -4.34138,-6.07793 -14.8763,-8.49631 -20.91647,-4.87225 -0.52852,0.30201 -1.20569,0.18407 -1.54544,-0.30673 -0.37751,-0.52852 -0.22414,-1.27646 0.34212,-1.61622 6.22893,-3.81286 16.19286,-2.15888 21.93104,3.12627 0.64176,0.56626 1.58083,0.53323 2.14709,-0.07079 1.66105,-1.81205 4.34375,-4.27065 7.70359,-5.96939 5.92692,-2.98234 15.66906,-4.60326 22.80403,-1.92295 2.00081,0.75503 3.65952,1.81679 4.94303,3.13806 0.0755,-0.2265 0.19579,-0.49311 0.27134,-0.71963 -0.49077,-10.45706 -4.68123,-16.5798 -13.02413,-19.14689 -0.60402,-0.18875 -0.98861,-0.79042 -0.83761,-1.35668 0.15101,-0.64177 0.79755,-1.01455 1.43926,-0.8258 3.92612,1.17028 7.01465,3.08848 9.3552,5.76884 0.45301,0.49076 1.25048,0.49548 1.62802,-0.07079 1.20803,-1.66105 2.00553,-4.004 2.00553,-6.57105 0,-1.84981 -0.41763,-3.54154 -1.09715,-5.01382 -0.03775,-0.0755 -0.08021,-0.16045 -0.11797,-0.23594 0,0 0,0.0023 0,-0.03539 -0.151,-0.26427 -0.25956,-0.52616 -0.44829,-0.79042 -0.151,-0.26426 -0.29968,-0.5238 -0.4129,-0.8258 -1.13254,-1.66106 -2.98706,-3.06022 -5.40313,-4.11724 -4.49238,-1.9253 -9.93097,-2.15179 -13.55501,-0.56626 -4.19037,1.8498 -7.2883,5.62257 -8.0811,9.85068 -0.52851,2.75583 -0.25956,6.91082 3.89309,11.10119 0.45301,0.45301 0.49077,1.24578 0,1.6988 -0.22651,0.18875 -0.49075,0.25952 -0.75503,0.25953 -0.30201,0 -0.5639,-0.11561 -0.79041,-0.34211 -3.81286,-3.81287 -5.39839,-8.44915 -4.53013,-13.13031 0.18875,-0.98153 0.44828,-1.92529 0.8258,-2.83134 0.37751,-0.90603 0.30674,-1.96545 -0.25954,-2.79594 -0.0755,-0.11325 -0.11799,-0.15101 -0.11797,-0.18875 -1.43454,-2.34057 -8.82902,-11.2876 -23.66523,-9.62654 -0.67952,0.0755 -1.32601,-0.48603 -1.2505,-1.20332 0.03775,-0.56626 0.49547,-0.98861 1.06175,-1.02635 13.55265,-1.4723 22.22832,5.51638 25.58817,10.12201 0.37751,0.52852 1.17501,0.56156 1.62802,0.07079 1.54779,-1.6988 3.43769,-3.09086 5.62727,-4.03465 4.15263,-1.81206 10.30369,-1.58554 15.3246,0.56626 1.81205,0.75502 3.3198,1.73418 4.56552,2.86673 0.11326,-0.22651 0.22895,-0.49312 0.34212,-0.71963 1.01928,-1.6233 1.62802,-3.73736 1.62802,-6.04018 0,-2.56708 -0.75975,-4.87223 -2.00553,-6.57105 -0.03775,-0.03776 -0.033,-0.06839 -0.07078,-0.10618 -0.64177,-0.90603 -1.78368,-1.36616 -2.87853,-1.02636 -1.43454,0.45301 -2.90687,0.64887 -4.34137,0.64885 -2.11407,0 -4.11486,-0.41291 -5.66267,-0.97917 -0.52851,-0.18876 -0.86832,-0.71962 -0.75502,-1.2859 0.11325,-0.71727 0.86832,-1.09953 1.51004,-0.87299 2.86909,1.09478 7.2199,1.36616 10.42875,-0.48369 0.2265,-0.151 0.44589,-0.30912 0.67244,-0.46009 0.75502,-0.56627 1.36377,-1.28116 1.81677,-2.1117 0.75502,-1.51005 1.23868,-3.35748 1.23871,-5.32055 v -0.03539 c 0,-1.58555 -0.56154,-3.18053 -1.58083,-4.38857 -3.62411,-4.37913 -8.11645,-6.11095 -13.40164,-5.16718 -0.56627,0.11325 -1.13254,-0.15574 -1.32129,-0.68424 -0.26426,-0.67952 0.15579,-1.39444 0.87299,-1.54544 5.0209,-0.906023 9.50859,0.30435 13.28367,3.55097 0.49077,0.45301 1.28833,0.1935 1.43926,-0.4483 0.11326,-0.60401 0.22657,-1.44158 0.18876,-2.5364 C 72.60247,5.089767 70.52375,0.6799678 61.46353,0.07594775 60.08089,-0.01843003 58.73346,-0.02314967 57.42888,0.05235331 Z m 34.56586,0 C 90.69019,-0.02314892 89.34269,-0.0184372 87.96009,0.07594775 78.89983,0.6799678 76.82118,5.089767 76.67015,11.3187 c -0.03775,1.09479 0.07547,1.9324 0.18875,2.5364 0.151,0.64178 0.94847,0.90133 1.43926,0.4483 3.77512,-3.2466 8.26278,-4.457008 13.28368,-3.55097 0.71726,0.151 1.13722,0.86594 0.87299,1.54544 -0.18875,0.52852 -0.75502,0.79748 -1.32129,0.68424 -5.28516,-0.94378 -9.77757,0.78806 -13.40164,5.16718 -1.01929,1.20805 -1.58083,2.80301 -1.58083,4.38857 v 0.03539 c 2e-5,1.96307 0.48369,3.8105 1.23871,5.32055 0.45299,0.83054 1.06175,1.54543 1.81677,2.1117 0.22652,0.151 0.44597,0.30907 0.67244,0.46009 3.20882,1.84982 7.55969,1.57847 10.42875,0.48369 0.64175,-0.22653 1.39676,0.15571 1.51004,0.87299 0.11326,0.56628 -0.22647,1.09714 -0.75502,1.2859 -1.54779,0.56626 -3.54864,0.97917 -5.66267,0.97917 -1.43453,1e-5 -2.9068,-0.19582 -4.34138,-0.64885 -1.09478,-0.33977 -2.23678,0.12032 -2.87852,1.02636 -0.03775,0.03776 -0.03306,0.06844 -0.07078,0.10618 -1.24578,1.69881 -2.00553,4.00399 -2.00553,6.57105 0,2.30282 0.60877,4.41688 1.62802,6.04018 0.11323,0.2265 0.22883,0.49314 0.34212,0.71963 1.24578,-1.13255 2.75344,-2.11171 4.56552,-2.86673 5.02091,-2.15182 11.17197,-2.3783 15.32459,-0.56626 2.18957,0.94379 4.07947,2.33585 5.62727,4.03465 0.453,0.49075 1.2505,0.45775 1.628,-0.07079 3.3599,-4.60563 12.0356,-11.59431 25.5882,-10.12201 0.5663,0.03774 1.024,0.46009 1.0618,1.02635 0.0755,0.71728 -0.571,1.27884 -1.2506,1.20332 -14.8361,-1.66106 -22.2306,7.28598 -23.6652,9.62654 0,0.03774 -0.0425,0.0755 -0.118,0.18875 -0.5662,0.83051 -0.637,1.8899 -0.2595,2.79594 0.3775,0.90603 0.6371,1.84982 0.8258,2.83134 0.8683,4.68115 -0.7173,9.31744 -4.5301,13.13031 -0.2265,0.2265 -0.4884,0.34211 -0.7904,0.34211 -0.2643,-1e-5 -0.5286,-0.07078 -0.7551,-0.25953 -0.4907,-0.45302 -0.4529,-1.24579 0,-1.6988 4.1527,-4.19037 4.4217,-8.34536 3.8931,-11.10119 -0.7927,-4.22812 -3.8907,-8.00086 -8.08107,-9.85068 -3.62408,-1.58554 -9.0626,-1.35903 -13.55501,0.56626 -2.41607,1.05704 -4.27059,2.45617 -5.40313,4.11724 -0.11326,0.302 -0.26186,0.56154 -0.4129,0.8258 -0.18877,0.26426 -0.29726,0.52615 -0.44829,0.79042 0,0.03774 0,0.03539 0,0.03539 -0.03773,0.07549 -0.08026,0.16044 -0.11798,0.23594 -0.67951,1.47229 -1.09714,3.164 -1.09714,5.01382 0,2.56706 0.79752,4.90999 2.00553,6.57105 0.3775,0.56627 1.17503,0.56155 1.62802,0.07079 2.34058,-2.68035 5.42905,-4.59857 9.35519,-5.76884 0.64175,-0.18875 1.28823,0.18403 1.43926,0.8258 0.15104,0.56626 -0.23361,1.16793 -0.8376,1.35668 -8.34296,2.56707 -12.53334,8.68984 -13.02413,19.14689 0.07549,0.22649 0.19586,0.49315 0.27133,0.71963 1.28355,-1.32127 2.9422,-2.38303 4.94304,-3.13806 7.13498,-2.68031 16.87711,-1.05942 22.80408,1.92295 3.3598,1.69877 6.0425,4.15731 7.7035,5.96939 0.5663,0.60402 1.5054,0.63705 2.1471,0.07079 5.7382,-5.28518 15.7021,-6.9391 21.9311,-3.12627 0.5662,0.3398 0.7196,1.08768 0.3421,1.61622 -0.3398,0.49076 -1.0169,0.60877 -1.5454,0.30673 -6.0402,-3.6241 -16.5751,-1.20564 -20.9165,4.87225 l -0.1888,0.25954 c -0.3775,0.52855 -1.1348,0.4908 -1.4746,0 l -0.1888,-0.25954 c -0.0377,-0.03771 -3.5132,-4.9525 -8.8361,-7.6328 -5.36067,-2.7181 -14.53186,-4.2588 -20.98727,-1.80497 -2.98234,1.13256 -5.0185,2.93518 -6.07557,5.42672 -0.30199,0.94376 -0.49548,1.96303 -0.49548,3.02009 0,5.13409 4.07712,9.33392 9.06027,9.2962 4.41686,-0.03772 9.25135,-3.21117 10.53492,-4.30598 0.52853,-0.41524 1.32129,-0.29962 1.6988,0.34212 0.30198,0.49079 0.1203,1.12307 -0.29493,1.46286 -0.67952,0.52853 -1.40155,1.02167 -2.19429,1.47464 -0.45301,0.26426 -0.52854,0.86589 -0.18875,1.16793 5.7759,5.70041 13.8924,9.24901 22.8394,9.24901 17.592,0 31.8643,-13.65645 31.8643,-30.53119 0,-4.19036 -0.8683,-8.16133 -2.4538,-11.78543 -1.7366,-3.92611 -5.2474,-6.83293 -9.4378,-7.55022 -0.1887,-0.03778 -0.3775,-0.03305 -0.5662,-0.07078 -4.6434,-0.60401 -9.1405,1.31421 -11.4434,3.31502 -0.5662,0.49076 -0.7904,1.28824 -0.6016,2.00552 0.151,0.60402 0.2666,1.16558 0.3421,1.76959 0.3775,3.20885 -0.269,5.93165 -1.8168,7.66819 -0.2265,0.26425 -0.5237,0.37751 -0.8258,0.37751 -0.3397,0 -0.6465,-0.11325 -0.873,-0.37751 -0.3775,-0.45302 -0.2949,-1.09242 0.0826,-1.54544 1.0571,-1.24578 1.47,-3.3622 1.1679,-5.81603 -0.4529,-3.69962 -2.4231,-7.20575 -4.9902,-8.94229 -0.5663,-0.37751 -0.6701,-1.21746 -0.1416,-1.74599 0.3776,-0.41527 1.0099,-0.40818 1.4629,-0.10617 1.3968,0.98152 2.652,2.34056 3.6335,3.96386 0.4153,0.67954 1.3166,0.86592 1.9584,0.41291 0.9815,-0.71727 2.1518,-1.35903 3.3976,-1.88756 2.0385,-0.86828 5.2521,-1.81205 8.9895,-1.32129 1.8498,0.2265 3.9591,0.82815 6.1109,2.1117 0.8305,0.49076 1.8876,0.14864 2.2651,-0.71963 0.3775,-0.90602 0.6771,-1.92529 0.7904,-3.02009 1.0193,-4.71888 -1.1679,-13.70366 -6.2643,-21.70689 -7.135,-10.34379 -15.0226,-13.58566 -18.7222,-14.4162 -0.9438,-0.18876 -1.8144,0.49314 -1.8522,1.47465 0,0.75502 -0.1179,1.51004 -0.3067,2.26507 -0.6418,2.71809 -2.2273,5.13179 -4.3414,6.64183 -0.6417,0.49075 -0.9438,1.2859 -0.755,2.04092 0.302,1.20806 0.3468,2.37598 0.0826,3.43299 -0.1133,0.52853 -0.5686,0.873 -1.0972,0.873 -0.151,-10e-6 -0.2618,-0.04485 -0.4129,-0.08258 -0.5662,-0.22652 -0.7975,-0.82581 -0.6842,-1.39208 0.3398,-1.62327 -0.2642,-3.65949 -1.6988,-5.69805 -2.1518,-3.05783 -5.5046,-5.21672 -8.6002,-5.5565 -0.7172,-0.03774 -1.1797,-0.71017 -0.9909,-1.42746 0.151,-0.52853 0.6842,-0.87773 1.2505,-0.80221 3.6996,0.37751 7.7012,2.91627 10.1928,6.46488 0.302,0.45302 0.9862,0.56392 1.4392,0.22414 1.6233,-1.17028 2.8691,-3.0956 3.3976,-5.28515 0.453,-1.92529 0.3021,-3.9686 -0.3775,-5.9694 -0.7172,-2.07632 -2.0456,-3.886 -3.6689,-5.320542 C 108.3079,4.978877 101.1266,0.5808666 91.99474,0.05235331 Z M 74.7472,94.83124 c -2.07631,3.5486 -5.85377,5.92226 -10.15741,5.92216 -1.51004,0 -3.01774,-0.3067 -4.37677,-0.87295 -1.24579,-0.49076 -2.678,-0.2572 -3.62174,0.64885 -6.45545,6.1157 -15.24908,9.6619 -24.38486,9.6619 -2.07631,0 -4.12196,-0.1911 -6.12276,-0.5309 5.1719,8.645 14.61441,14.428 25.41122,14.428 8.30524,0 15.55581,-3.44 20.91647,-8.9894 0.64177,-0.6796 1.5029,-1.0146 2.37124,-1.0146 0.86828,0 1.74132,0.335 2.38304,1.0146 5.36066,5.5494 12.61122,8.9894 20.91648,8.9894 10.79679,0 20.22749,-5.783 25.39939,-14.428 -1.963,0.3398 -3.9968,0.5309 -6.1109,0.5309 -9.2491,0 -18.0498,-3.5462 -24.46747,-9.6619 -0.98154,-0.94379 -2.37594,-1.1774 -3.62175,-0.64885 -1.39679,0.56625 -2.86667,0.87305 -4.37677,0.87295 -4.30363,0 -8.08112,-2.37351 -10.15741,-5.92216 z"
           id="Stroke-66"
           stroke="#000000"
           stroke-width="2"
           stroke-linejoin="round" />
      </g>
      <g
         id="Group-71"
         transform="translate(624.6977,144.57542)">
        <path
           d="m 63.576,0 c -3.362,0 -6.724,1.2167 -6.724,3.6558 0,22.341 10.348,33.3075 20.107,37.9147 -0.733,2.9201 -1.327,6.0897 -1.764,9.5455 C 71.046,83.9383 63.576,85.6428 57.227,86.0164 52.192,81.8375 44.577,79.2061 36.329,84.1885 33.6,83.4685 30.53,83.1525 27.094,83.4296 19.188,84.0627 12.814,87.2687 8.152,92.9537 -1.057,104.1851 -0.52400001,122.0906 0.61599999,131.7663 1.024,136.1354 14.44,134.2056 13.978,130.195 c -1.493,-12.6667 0.216,-23.4068 4.575,-28.722 2.156,-2.6297 5.075,-4.1307 8.904,-4.575 -2.202,23.4356 51.285,53.4476 84.669,10.2189 43.698,-56.5832 21.63,-90.98 0,-95.6152 C 104.387,9.8434 90.368,12.6604 81.758,28.7969 76.621,25.9226 70.299,19.2189 70.299,3.6558 70.299,1.2167 66.937,0 63.576,0 Z"
           id="Fill-68"
           fill="#95a0d4" />
        <path
           d="m 63.57574,0 c -3.36147,0 -6.72353,1.216689 -6.72354,3.655721 0,22.341029 10.34763,33.307579 20.10647,37.914749 -0.73302,2.92013 -1.32694,6.08971 -1.76372,9.54549 C 71.04547,83.93827 63.57593,85.6428 57.22633,86.01634 52.19161,81.83744 44.57719,79.2061 36.32885,84.18848 33.59959,83.46845 30.52998,83.15248 27.09335,83.42954 19.18775,84.06268 12.81354,87.26869 8.152005,92.95365 -1.057506,104.1851 -0.52397631,122.0906 0.61608779,131.7663 1.023818,136.1354 14.43977,134.2055 13.97764,130.195 c -1.49307,-12.6667 0.21651,-23.4068 4.575,-28.722 2.15632,-2.62974 5.07483,-4.1307 8.90414,-4.57501 -2.20181,23.43561 51.28485,53.44761 84.66952,10.21891 43.6976,-56.58321 21.6299,-90.98006 0,-95.61527 -7.739,-1.658291 -21.75859,1.1587 -30.36816,17.29519 C 76.62046,25.92253 70.29925,19.21891 70.29927,3.655721 70.29927,1.216692 66.93721,0 63.57574,0 Z"
           id="Stroke-70"
           stroke="#000000"
           stroke-width="2"
           stroke-linejoin="round" />
      </g>
      <g
         id="Group-75"
         transform="translate(371.9942,136.19142)">
        <path
           d="M 55.3155,3.7911011e-5 C 54.4245,0.0066 53.4905,0.1275 52.4405,0.3553 c -0.373,0.0806 -0.682,0.3414 -0.817,0.6981 -1.133,3.0097 -1.67,5.9725 -1.893,8.7085 -0.021,0.2658 -0.199,0.4885 -0.449,0.5797 -0.28,0.1019 -0.5522,0.2166 -0.8286,0.3314 -0.3411,0.1416 -0.7287,0.0022 -0.8874,-0.3314 C 46.5341,8.1759 45.2878,5.9146 44.1697,3.9878 43.9217,3.5603 43.3693,3.4284 42.951,3.6919 c -1.638,1.0322 -3.0747,2.1655 -4.2715,3.2302 -0.3464,0.3082 -0.4708,0.7967 -0.3076,1.2306 0.8796,2.3388 1.6019,4.9068 2.118,6.9692 0.1552,0.6202 0.0073,1.2719 -0.4023,1.763 -1.6081,1.9276 -2.9745,4.2043 -4.0112,6.8153 -8.1239,20.4537 -2.6496,32.1296 -0.4732,35.6032 0.3544,0.5656 1.1738,0.5938 1.5736,0.0591 2.2813,-3.0514 9.1442,-12.3646 15.7367,-22.6705 6.039,-9.4408 15.298,-15.6718 18.234,-17.4999 0.516,-0.321 0.655,-1.0079 0.319,-1.5145 -1.167,-1.7595 -2.51,-3.2426 -3.987,-4.4489 -0.301,-0.2453 -0.4,-0.6616 -0.249,-1.0176 0.783,-1.839 1.621,-3.7018 2.355,-5.3008 0.191,-0.4161 0.082,-0.9058 -0.272,-1.195 -1.054,-0.8592 -2.32,-1.7225 -3.81,-2.5085 -0.437,-0.2302 -0.973,-0.1556 -1.326,0.1893 -2.098,2.056 -3.454,4.0146 -4.33,5.6677 -0.142,0.2684 -0.446,0.3942 -0.746,0.3431 -0.431,-0.0738 -0.866,-0.1229 -1.301,-0.1656 -0.387,-0.0383 -0.659,-0.3959 -0.604,-0.781 0.392,-2.7136 0.884,-5.3454 1.302,-7.2295 0.09,-0.4047 -0.165,-0.8107 -0.568,-0.911 C 57.0535,0.1013 56.2075,-0.006 55.3155,3.7911011e-5 Z M 28.1252,12.08099 C 27.957,12.0804 27.7815,12.1068 27.6164,12.1756 l -8.1524,3.3959 c -0.6611,0.2756 -0.9752,1.0431 -0.6981,1.7038 1.4517,3.4581 5.0161,13.7176 -0.5324,20.3751 -5.756,6.9062 -9.4666,11.8582 -9.7616,18.1151 -0.0428,0.9065 1.0526,1.4125 1.7038,0.7809 6.7446,-6.5404 14.2371,-10.5952 16.5888,-11.7848 0.4619,-0.2344 0.7699,-0.6912 0.8164,-1.2069 0.2423,-2.672 1.252,-11.3123 4.7092,-19.109 0.4427,-0.9977 0.5041,-2.1256 0.1539,-3.1593 -1.485,-4.3811 -2.5525,-7.0371 -3.1356,-8.4127 -0.2093,-0.4938 -0.6787,-0.7909 -1.1832,-0.79271 z m 55.4453,7.93941 c -16.903,3.2532 -22.701,12.7047 -34.277,29.3557 -8.4356,12.1329 -16.6428,20.0134 -26.9306,25.5694 -1.0113,0.5464 -1.8973,-0.9036 -0.9466,-1.55 5.4962,-3.7352 9.2402,-7.0335 10.8502,-8.531 0.4956,-0.4612 0.5716,-1.2128 0.1775,-1.763 C 31.0555,61.164 28.0719,56.2207 27.5691,49.0093 27.5324,48.4819 26.9616,48.176 26.5042,48.4414 11.4737,57.1658 0,67.8321 0,88.9431 c 0,32.9094 35.722,39.2432 53.3985,54.3808 13.112,11.2283 29.228,11.3103 33.355,-7.3596 5.192,-23.4865 15.165,-29.1623 15.169,-48.9144 0.007,-26.8574 -22.109,-35.2703 -29.356,-37.307 -1.257,-0.3544 -2.572,0.3141 -3.029,1.5382 -2.392,6.4068 -5.508,12.8916 -8.519,18.4464 -0.117,0.2178 -0.158,0.4638 -0.13,0.71 0.651,5.7037 4.496,18.9095 26.137,19.1563 0.819,0.0095 0.873,1.215 0.06,1.3134 -14.444,1.7527 -23.408,-2.4174 -29.392,-13.607 -0.215,-0.4029 -0.788,-0.4122 -1.029,-0.0237 -0.888,1.4358 -1.715,2.7119 -2.461,3.7981 -0.732,1.0659 -1.194,2.299 -1.325,3.5852 -0.614,5.9907 -0.451,11.2832 0.26,15.9971 0.098,0.6517 0.54,1.2066 1.16,1.4317 5.629,2.0469 11.625,4.921 17.227,10.5426 0.546,0.5474 -0.177,1.4097 -0.804,0.9584 -7.845,-5.6481 -13.305,-6.9615 -15.844,-7.2414 -0.278,-0.0306 -0.489,0.2271 -0.414,0.497 2.587,9.2992 7.318,15.992 11.679,21.2743 0.65,0.7879 -0.443,1.8047 -1.184,1.1004 -4.614,-4.3895 -7.939,-9.1857 -10.329,-13.9265 -0.159,-0.315 -0.596,-0.3353 -0.781,-0.0355 -0.93,1.502 -2.177,4.4452 -2.532,9.7616 -0.062,0.9299 -1.434,0.9521 -1.515,0.0236 -0.371,-4.2686 0.152,-8.2959 2.592,-13.5478 0.171,-0.3696 0.181,-0.7909 0.035,-1.1714 -3.8941,-10.1678 -3.9001,-19.2345 -3.7744,-22.1973 0.0144,-0.3434 -0.403,-0.522 -0.6389,-0.2721 -1.0632,1.1264 -3.2314,3.4139 -5.8333,6.0462 -0.3294,0.3332 -0.4745,0.8054 -0.3905,1.2661 1.6626,9.1 0.251,14.5664 -1.7038,18.1388 -0.4252,0.7773 -1.6243,0.2665 -1.3607,-0.5798 1.8674,-5.9949 1.1801,-9.9603 -0.1065,-14.7666 -0.0591,-0.2207 -0.327,-0.3165 -0.5088,-0.1775 -5.3414,4.0794 -8.0158,9.4043 -9.3475,13.5597 -0.2351,0.7338 -1.323,0.4943 -1.2423,-0.2721 0.4255,-4.0514 2.8092,-9.693 10.01,-16.9082 17.3087,-17.3436 21.7237,-28.1329 28.5867,-44.7495 6.204,-15.0218 21.645,-20.4228 24.552,-21.3216 0.228,-0.0708 0.314,-0.3451 0.165,-0.5325 -0.984,-1.2445 -4.112,-5.1406 -6.519,-7.336 -0.198,-0.1802 -0.483,-0.2514 -0.746,-0.2011 z"
           id="Fill-72"
           fill="#d48d7b" />
        <path
           d="m 55.3156,0 c -0.89144,0.00655689 -1.82507,0.1274897 -2.87522,0.3552286 -0.37257,0.0806484 -0.68203,0.3414357 -0.81643,0.6981004 -1.13324,3.009737 -1.6701,5.972527 -1.89315,8.70851 -0.02159,0.265801 -0.19939,0.488531 -0.44962,0.579781 -0.27981,0.10185 -0.55187,0.21658 -0.82826,0.3313 -0.34115,0.14161 -0.72873,0.0023 -0.88742,-0.3313 -1.03139,-2.16577 -2.27775,-4.427052 -3.39584,-6.353901 -0.248,-0.427475 -0.80037,-0.55932 -1.21872,-0.295806 -1.63796,1.032148 -3.07463,2.165467 -4.27143,3.230195 -0.34645,0.308205 -0.47087,0.796636 -0.30764,1.23055 0.87956,2.338802 1.60192,4.906772 2.11797,6.969172 0.15524,0.6202 0.0074,1.27192 -0.4023,1.763 -1.60804,1.92761 -2.97444,4.20432 -4.01112,6.81536 -8.1239,20.45364 -2.64966,32.12956 -0.47329,35.60313 0.3544,0.56568 1.1738,0.5938 1.57369,0.05916 2.28125,-3.05138 9.14416,-12.36457 15.73684,-22.67052 6.03917,-9.44078 15.29748,-15.67181 18.23345,-17.49984 0.51607,-0.32108 0.6553,-1.00792 0.31947,-1.51453 C 70.29926,15.91809 68.95611,14.435 67.47912,13.22868 67.17849,12.98333 67.07916,12.56703 67.23065,12.21111 68.01328,10.3721 68.85108,8.509232 69.58526,6.910276 69.77608,6.49416 69.6679,6.004506 69.31311,5.715222 68.25901,4.856108 66.99345,3.992817 65.50314,3.206792 65.06658,2.976585 64.53045,3.051178 64.17793,3.396108 62.07918,5.452074 60.72309,7.410626 59.84734,9.063739 59.70536,9.332188 59.40139,9.457991 59.10191,9.406873 58.67065,9.33304 58.23544,9.283998 57.80037,9.241222 57.41303,9.20298 57.14133,8.84537 57.19693,8.460296 57.58805,5.746649 58.08084,3.11488 58.49847,1.230813 58.58821,0.8260561 58.33302,0.4200665 57.93052,0.319732 57.05362,0.1012619 56.20704,-0.00603864 55.3156,0 Z M 28.12517,12.08094 c -0.16817,-6e-4 -0.34371,0.02586 -0.50878,0.09467 l -8.1524,3.39585 c -0.66109,0.27564 -0.97526,1.04313 -0.6981,1.70384 1.45167,3.45803 5.01604,13.71762 -0.53245,20.37507 -5.75594,6.90623 -9.466602,11.85825 -9.761574,18.11512 -0.042786,0.90645 1.05261,1.4125 1.703834,0.78092 6.74456,-6.54046 14.23709,-10.59521 16.58877,-11.78488 0.46193,-0.23437 0.76986,-0.69117 0.81642,-1.20688 0.24233,-2.672 1.25198,-11.31226 4.70922,-19.10903 0.44262,-0.99769 0.50406,-2.12555 0.15382,-3.1592 -1.48499,-4.38114 -2.55242,-7.03714 -3.13553,-8.41271 -0.20929,-0.49383 -0.67871,-0.79091 -1.18323,-0.79277 z m 55.44576,7.93943 c -16.90322,3.2532 -22.70169,12.70467 -34.27792,29.35572 -8.43514,12.13285 -16.64236,20.0134 -26.93012,25.56942 -1.01133,0.54637 -1.89733,-0.90368 -0.94658,-1.55002 5.4962,-3.73519 9.2402,-7.03354 10.85014,-8.53103 0.49563,-0.46117 0.57159,-1.21283 0.17748,-1.763 C 31.05549,61.16401 28.0719,56.22069 27.56906,49.00929 27.53233,48.48187 26.96158,48.17596 26.50416,48.44135 11.47365,57.16576 0,67.83207 0,88.94302 c 0,32.90948 35.72201,39.24318 53.39879,54.38088 13.11198,11.2283 29.22797,11.3102 33.35501,-7.3597 5.19179,-23.4864 15.1643,-29.1622 15.1689,-48.91434 0.006,-26.85742 -22.10909,-35.27031 -29.35573,-37.30697 -1.25743,-0.35439 -2.57207,0.31405 -3.02904,1.53819 -2.39295,6.40681 -5.50876,12.89154 -8.5192,18.44642 -0.11775,0.21772 -0.15853,0.46382 -0.13015,0.70994 0.65049,5.70369 4.4963,18.90953 26.13736,19.15635 0.8186,0.0095 0.8721,1.21498 0.05916,1.31338 -14.44363,1.75268 -23.4073,-2.4174 -29.39122,-13.60705 -0.21544,-0.40286 -0.7889,-0.41211 -1.0294,-0.02366 -0.88789,1.43577 -1.71517,2.71186 -2.4611,3.79814 -0.73152,1.06584 -1.19385,2.29895 -1.32521,3.58516 -0.61338,5.9907 -0.45069,11.28318 0.26031,15.99714 0.09844,0.6516 0.54015,1.2065 1.15955,1.4317 5.62987,2.0469 11.62511,4.921 17.22771,10.5425 0.5456,0.5475 -0.17721,1.4098 -0.80459,0.9584 -7.84485,-5.648 -13.30423,-6.9615 -15.84334,-7.2413 -0.27829,-0.0307 -0.48911,0.227 -0.41412,0.497 2.58642,9.2991 7.31769,15.992 11.67839,21.2743 0.65049,0.7879 -0.44305,1.8046 -1.18322,1.1004 -4.61475,-4.3895 -7.93965,-9.1857 -10.32952,-13.9265 -0.15865,-0.3151 -0.59544,-0.3353 -0.78093,-0.0355 -0.92954,1.502 -2.17651,4.4452 -2.53209,9.7615 -0.0621,0.93 -1.43391,0.9521 -1.51453,0.0237 -0.37105,-4.2687 0.15214,-8.296 2.59126,-13.5479 0.17152,-0.3695 0.18131,-0.7908 0.03549,-1.1714 -3.89422,-10.1677 -3.90018,-19.23447 -3.77447,-22.1972 0.01438,-0.34342 -0.40302,-0.52205 -0.63894,-0.27214 -1.0632,1.12642 -3.23133,3.41395 -5.83328,6.04626 -0.32941,0.33319 -0.4745,0.8053 -0.39047,1.26604 1.66257,9.10004 0.25101,14.56644 -1.70384,18.13884 -0.4252,0.7773 -1.62425,0.2665 -1.3607,-0.5798 1.86741,-5.9949 1.18014,-9.9603 -0.10649,-14.76663 -0.05907,-0.22074 -0.32702,-0.3165 -0.50879,-0.17748 -5.34134,4.07941 -8.0158,9.40431 -9.34745,13.55971 -0.23513,0.7338 -1.32302,0.4943 -1.24238,-0.2721 0.42558,-4.0514 2.80926,-9.693 10.01006,-16.90827 17.30873,-17.34357 21.7232,-28.13285 28.58663,-44.74944 6.20424,-15.0218 21.64508,-20.42278 24.55184,-21.32165 0.2287,-0.0708 0.31451,-0.34504 0.16565,-0.53245 -0.98481,-1.24456 -4.11258,-5.14067 -6.51955,-7.33597 -0.19764,-0.18023 -0.48266,-0.2515 -0.74543,-0.20115 z"
           id="Stroke-74"
           stroke="#000000"
           stroke-width="2"
           stroke-linejoin="round" />
      </g>
      <g
         id="Group-79"
         transform="translate(510.53929,155.17322)">
        <path
           d="M 47.761406,0.0023 C 36.869405,-0.0807 24.847405,2.0753 14.659406,9.7059 -0.83159449,21.3502 -0.09259449,50.3551 0.04840551,78.866 c 0.106,19.3719 1.09199999,34.1941 8.32499999,34.1941 16.6200005,0 17.8239995,-28.6587 33.1029995,-34.128 19.83,-7.0924 36.693,-16.8996 56.347001,-31.9667 0,0 44.852004,-30.0325 38.924004,-39.4538 -4.763,-7.5865 -34.73,-9.2758 -52.620005,-5.7119 -6.139,1.1997 -12.449,1.2306 -18.624,0.0661 -5.080999,-0.9659 -11.207,-1.8137 -17.741999,-1.8635 z"
           id="Fill-76"
           fill="#d4c393" />
        <path
           d="M 47.761815,0.00228989 C 36.870095,-0.08075761 24.848125,2.075328 14.659366,9.705873 -0.83109269,21.35016 -0.09229032,50.35507 0.04885272,78.86596 0.15470931,98.23786 1.1405055,113.0601 8.3740875,113.0601 c 16.6195875,0 17.8237175,-28.65869 33.1024575,-34.12798 19.83059,-7.09243 36.69278,-16.89967 56.346951,-31.96669 0,0 44.852614,-30.03259 38.924614,-39.45389 -4.7636,-7.58643595 -34.73,-9.275743 -52.619904,-5.711882 C 77.988445,2.999369 71.678945,3.030249 65.503945,1.865819 60.422786,0.8998703 54.296855,0.05211832 47.761815,0.00228989 Z"
           id="Stroke-78"
           stroke="#000000"
           stroke-width="2"
           stroke-linejoin="round" />
      </g>
    </g>
  </g>
  <metadata
     id="metadata9">
    <rdf:RDF>
      <cc:Work
         rdf:about="">
        <dc:title>Group</dc:title>
      </cc:Work>
    </rdf:RDF>
  </metadata>
</svg>
