<?xml version="1.0" encoding="UTF-8" standalone="no"?>
<!-- Created with Vectornator for iOS (http://vectornator.io/) -->

<svg
   height="400"
   style="clip-rule:evenodd;fill-rule:evenodd;stroke-linecap:round;stroke-linejoin:round"
   xml:space="preserve"
   width="400"
   version="1.1"
   viewBox="0 0 400 400"
   id="svg10"
   sodipodi:docname="rising_logo_cropped.svg"
   inkscape:version="1.3 (0e150ed, 2023-07-21)"
   xmlns:inkscape="http://www.inkscape.org/namespaces/inkscape"
   xmlns:sodipodi="http://sodipodi.sourceforge.net/DTD/sodipodi-0.dtd"
   xmlns="http://www.w3.org/2000/svg"
   xmlns:svg="http://www.w3.org/2000/svg"
   xmlns:vectornator="http://vectornator.io"><sodipodi:namedview
   id="namedview10"
   pagecolor="#ffffff"
   bordercolor="#000000"
   borderopacity="0.25"
   inkscape:showpageshadow="2"
   inkscape:pageopacity="0.0"
   inkscape:pagecheckerboard="0"
   inkscape:deskcolor="#d1d1d1"
   inkscape:zoom="0.59"
   inkscape:cx="599.15254"
   inkscape:cy="200"
   inkscape:window-width="1920"
   inkscape:window-height="1027"
   inkscape:window-x="1512"
   inkscape:window-y="25"
   inkscape:window-maximized="1"
   inkscape:current-layer="svg10" />&#10;<metadata
   id="metadata1">&#10;<vectornator:setting
   key="DynamicGuides"
   value="1" />&#10;<vectornator:setting
   key="CMYKEnabledKey"
   value="0" />&#10;<vectornator:setting
   key="Units"
   value="Points" />&#10;<vectornator:setting
   key="GridSpacing"
   value="36" />&#10;<vectornator:setting
   key="SnapToGuides"
   value="1" />&#10;<vectornator:setting
   key="RulersVisible"
   value="1" />&#10;</metadata>&#10;<defs
   id="defs1"><clipPath
     clipPathUnits="userSpaceOnUse"
     id="clipPath2"><rect
       style="fill:#000000;fill-opacity:0.258964"
       id="rect3"
       width="359.32202"
       height="344.06778"
       x="6.7796607"
       y="11.864407" /></clipPath></defs>&#10;<g
   id="Layer 1"
   vectornator:layerName="Layer 1"
   clip-path="url(#clipPath2)"
   transform="translate(13.864407,23.728814)">&#10;<g
   opacity="1"
   id="g4">&#10;<g
   opacity="1"
   id="g2">&#10;<path
   stroke="#ef502e"
   fill-rule="evenodd"
   stroke-width="1"
   d="m 218.592,259.049 c 0.045,3.384 0.222,6.768 0.135,10.151 -0.143,5.602 -18.678,12.33 -18.678,20.032 -1.141,0.38 -2.436,4.999 -2.436,5.955 -5.276,1.759 3.546,23.687 10.151,23.687 2.211,6.632 16.697,1.624 21.115,1.624 0.367,-1.104 5.085,-3.461 6.09,-4.467 5.191,-5.191 6.226,-12.046 6.226,-19.49 -0.494,-0.165 -1.905,-5.435 -2.436,-6.497 -0.401,-0.803 -4.261,-5.087 -3.79,-5.685 3.228,-4.089 9.475,-4.736 9.475,1.624 3.725,1.242 3.717,15.962 3.79,17.867 -0.204,-0.068 -0.204,-0.068 -0.407,-0.136 -0.399,9.197 -9.634,24.363 -20.031,24.363 -0.944,2.833 -15.429,0 -19.22,0 -0.045,-0.135 -0.002,-0.353 -0.135,-0.406 -5.197,-2.078 -8.539,-4.748 -12.723,-8.933 -2.478,-2.477 -3.528,-6.243 -4.873,-8.933 -0.64,-1.28 -0.006,-5.145 -1.218,-5.549 -0.105,-5.767 1.76,-10.168 1.76,-15.024 1.187,-0.396 3.677,-6.656 5.008,-7.986 6.649,-6.649 15.225,-14.802 22.197,-22.197 z"
   fill="#ef502e"
   stroke-linecap="round"
   opacity="1"
   stroke-linejoin="round"
   id="path1" />&#10;<path
   stroke="#f05332"
   fill-rule="evenodd"
   stroke-width="1"
   d="m 228.337,270.418 c 4.326,-0.786 7.468,6.969 2.707,7.309 -4.965,0.355 -8.184,-6.312 -2.707,-7.309 z"
   fill="#f05332"
   stroke-linecap="round"
   opacity="1"
   stroke-linejoin="round"
   id="path2" />&#10;</g>&#10;<path
   stroke="#010101"
   stroke-width="11"
   d="M 21.7872,123.335 36.6121,309.339 167.26,298.926 c -0.024,-0.263 -0.072,-0.513 -0.093,-0.777 -2.595,-32.559 20.298,-60.962 51.123,-63.418 0.473,-0.038 0.935,-0.025 1.407,-0.049 L 209.629,108.363 Z"
   fill="none"
   stroke-linecap="round"
   opacity="1"
   stroke-linejoin="round"
   id="path3" />&#10;<path
   stroke="#ef4b28"
   stroke-width="11"
   d="M 215.112,28.692 85.2635,162.694 179.385,253.899 c 0.182,-0.191 0.338,-0.393 0.522,-0.583 22.73,-23.456 59.175,-25.032 81.383,-3.512 0.341,0.33 0.635,0.685 0.966,1.022 l 88.182,-91.002 z"
   fill="none"
   stroke-linecap="round"
   opacity="1"
   stroke-linejoin="round"
   id="path4" />&#10;</g>&#10;<g
   opacity="1"
   id="g10">&#10;<path
   d="M 386.115,257.904 H 367.719 V 105.042 h 55.626 c 14.162,0 24.966,3.869 32.412,11.607 7.446,7.738 11.169,18.542 11.169,32.412 0,12.41 -3.212,22.338 -9.636,29.784 -6.424,7.446 -15.768,11.753 -28.032,12.921 l 38.982,66.138 h -20.586 l -37.23,-65.262 h -24.309 z m 36.792,-80.811 c 7.738,0 13.761,-1.935 18.068,-5.804 4.307,-3.869 6.46,-9.38 6.46,-16.534 v -11.388 c 0,-7.154 -2.153,-12.666 -6.46,-16.535 -4.307,-3.869 -10.33,-5.803 -18.068,-5.803 h -36.792 v 56.064 z"
   opacity="1"
   fill="#000000"
   id="path5" />&#10;<path
   d="m 552.117,119.934 c -5.11,0 -8.687,-1.059 -10.731,-3.176 -2.044,-2.117 -3.066,-4.781 -3.066,-7.993 v -3.504 c 0,-3.212 1.022,-5.8768 3.066,-7.9938 2.044,-2.117 5.621,-3.1755 10.731,-3.1755 5.11,0 8.687,1.0585 10.731,3.1755 2.044,2.117 3.066,4.7818 3.066,7.9938 v 3.504 c 0,3.212 -1.022,5.876 -3.066,7.993 -2.044,2.117 -5.621,3.176 -10.731,3.176 z m -49.494,123.078 h 40.734 v -83.22 H 502.623 V 144.9 h 58.254 v 98.112 h 38.106 v 14.892 h -96.36 z"
   opacity="1"
   fill="#000000"
   id="path6" />&#10;<path
   d="m 677.823,260.532 c -11.826,0 -22.009,-2.008 -30.55,-6.023 -8.541,-4.015 -15.805,-9.38 -21.791,-16.096 l 11.826,-10.293 c 5.402,5.694 11.315,10.074 17.739,13.14 6.424,3.066 14.162,4.599 23.214,4.599 8.76,0 15.951,-1.57 21.572,-4.709 5.621,-3.139 8.431,-8.066 8.431,-14.782 0,-2.92 -0.547,-5.366 -1.642,-7.337 -1.095,-1.971 -2.592,-3.54 -4.49,-4.708 -1.898,-1.168 -4.015,-2.081 -6.351,-2.738 -2.336,-0.657 -4.818,-1.204 -7.446,-1.642 l -17.739,-2.628 c -3.942,-0.584 -8.212,-1.387 -12.811,-2.409 -4.599,-1.022 -8.797,-2.665 -12.593,-4.928 -3.796,-2.263 -6.971,-5.292 -9.526,-9.088 -2.555,-3.796 -3.833,-8.76 -3.833,-14.892 0,-5.694 1.132,-10.622 3.395,-14.783 2.263,-4.161 5.438,-7.665 9.526,-10.512 4.088,-2.847 8.906,-4.964 14.454,-6.351 5.548,-1.387 11.607,-2.08 18.177,-2.08 10.22,0 19.09,1.606 26.609,4.818 7.519,3.212 13.979,7.665 19.381,13.359 l -11.388,10.731 c -1.314,-1.606 -2.956,-3.249 -4.927,-4.928 -1.971,-1.679 -4.38,-3.212 -7.227,-4.599 -2.847,-1.387 -6.169,-2.518 -9.965,-3.394 -3.796,-0.876 -8.176,-1.314 -13.14,-1.314 -8.906,0 -15.731,1.533 -20.476,4.599 -4.745,3.066 -7.118,7.519 -7.118,13.359 0,2.92 0.548,5.365 1.643,7.336 1.095,1.971 2.591,3.541 4.489,4.709 1.898,1.168 4.052,2.08 6.461,2.737 2.409,0.657 4.854,1.205 7.336,1.643 l 17.739,2.628 c 4.088,0.584 8.395,1.387 12.921,2.409 4.526,1.022 8.687,2.664 12.483,4.927 3.796,2.263 6.972,5.293 9.527,9.089 2.555,3.796 3.832,8.76 3.832,14.892 0,11.242 -4.343,19.929 -13.03,26.061 -8.687,6.132 -20.258,9.198 -34.712,9.198 z"
   opacity="1"
   fill="#000000"
   id="path7" />&#10;<path
   d="m 814.917,119.934 c -5.11,0 -8.687,-1.059 -10.731,-3.176 -2.044,-2.117 -3.066,-4.781 -3.066,-7.993 v -3.504 c 0,-3.212 1.022,-5.8768 3.066,-7.9938 2.044,-2.117 5.621,-3.1755 10.731,-3.1755 5.11,0 8.687,1.0585 10.731,3.1755 2.044,2.117 3.066,4.7818 3.066,7.9938 v 3.504 c 0,3.212 -1.022,5.876 -3.066,7.993 -2.044,2.117 -5.621,3.176 -10.731,3.176 z m -49.494,123.078 h 40.734 v -83.22 H 765.423 V 144.9 h 58.254 v 98.112 h 38.106 v 14.892 h -96.36 z"
   opacity="1"
   fill="#000000"
   id="path8" />&#10;<path
   d="M 895.071,257.904 V 144.9 h 17.52 v 18.396 h 0.876 c 1.168,-2.774 2.628,-5.439 4.38,-7.994 1.752,-2.555 3.906,-4.781 6.461,-6.679 2.555,-1.898 5.584,-3.431 9.088,-4.599 3.504,-1.168 7.592,-1.752 12.264,-1.752 11.826,0 21.316,3.759 28.47,11.278 7.154,7.519 10.731,18.141 10.731,31.865 v 72.489 h -17.52 v -69.423 c 0,-10.366 -2.263,-18.068 -6.789,-23.105 -4.526,-5.037 -11.169,-7.555 -19.929,-7.555 -3.504,0 -6.935,0.438 -10.293,1.314 -3.358,0.876 -6.351,2.19 -8.979,3.942 -2.628,1.752 -4.745,4.015 -6.351,6.789 -1.606,2.774 -2.409,5.986 -2.409,9.636 v 78.402 z"
   opacity="1"
   fill="#000000"
   id="path9" />&#10;<path
   d="m 1127.87,270.825 c 0,11.388 -4.75,19.819 -14.24,25.294 -9.49,5.475 -23.72,8.213 -42.7,8.213 -18.25,0 -31.36,-2.409 -39.31,-7.227 -7.96,-4.818 -11.94,-11.753 -11.94,-20.805 0,-6.132 1.61,-10.877 4.82,-14.235 3.21,-3.358 7.74,-5.84 13.58,-7.446 v -2.628 c -3.21,-1.606 -5.7,-3.65 -7.45,-6.132 -1.75,-2.482 -2.63,-5.621 -2.63,-9.417 0,-5.84 1.94,-10.22 5.81,-13.14 3.87,-2.92 8.72,-5.11 14.56,-6.57 v -0.876 c -7.01,-3.066 -12.45,-7.592 -16.31,-13.578 -3.87,-5.986 -5.81,-12.994 -5.81,-21.024 0,-5.694 1.02,-10.95 3.07,-15.768 2.04,-4.818 5,-8.943 8.87,-12.374 3.87,-3.431 8.5,-6.095 13.9,-7.993 5.41,-1.898 11.39,-2.847 17.96,-2.847 8.47,0 15.92,1.533 22.34,4.599 V 144.9 c 0,-4.38 1.02,-8.03 3.07,-10.95 2.04,-2.92 5.54,-4.38 10.51,-4.38 h 20.8 v 15.33 h -25.4 v 7.665 c 4.09,3.504 7.23,7.665 9.42,12.483 2.19,4.818 3.28,10.22 3.28,16.206 0,5.694 -1.06,10.95 -3.17,15.768 -2.12,4.818 -5.08,8.942 -8.87,12.373 -3.8,3.431 -8.44,6.096 -13.91,7.994 -5.48,1.898 -11.5,2.847 -18.07,2.847 -1.9,0 -3.72,-0.073 -5.47,-0.219 -1.75,-0.146 -3.51,-0.365 -5.26,-0.657 -1.75,0.292 -3.58,0.766 -5.47,1.423 -1.9,0.657 -3.65,1.533 -5.26,2.628 -1.61,1.095 -2.92,2.373 -3.94,3.833 -1.02,1.46 -1.53,3.139 -1.53,5.037 0,3.358 1.67,5.584 5.03,6.679 3.36,1.095 7.74,1.643 13.14,1.643 h 24.97 c 14.6,0 25.18,2.737 31.75,8.212 6.57,5.475 9.86,12.812 9.86,22.01 z m -16.43,0.876 c 0,-4.526 -1.82,-8.14 -5.47,-10.841 -3.65,-2.701 -10,-4.051 -19.05,-4.051 h -39.21 c -7.59,3.066 -11.38,8.176 -11.38,15.33 0,4.964 1.97,9.234 5.91,12.811 3.94,3.577 10.51,5.366 19.71,5.366 h 17.08 c 10.22,0 18.18,-1.57 23.87,-4.709 5.7,-3.139 8.54,-7.774 8.54,-13.906 z m -41.39,-65.043 c 8.76,0 15.22,-2.044 19.38,-6.132 4.16,-4.088 6.25,-9.49 6.25,-16.206 v -6.351 c 0,-6.716 -2.09,-12.082 -6.25,-16.097 -4.16,-4.015 -10.62,-6.022 -19.38,-6.022 -8.76,0 -15.18,2.007 -19.27,6.022 -4.09,4.015 -6.13,9.381 -6.13,16.097 v 6.351 c 0,6.716 2.04,12.118 6.13,16.206 4.09,4.088 10.51,6.132 19.27,6.132 z"
   opacity="1"
   fill="#000000"
   id="path10" />&#10;</g>&#10;</g>&#10;<rect
   style="fill:#000000;fill-opacity:0.258964"
   id="rect2"
   width="13.559322"
   height="1.6949153"
   x="-11.864407"
   y="164.40678" /></svg>
